<svg width="487" height="284" viewBox="0 0 487 284" fill="none" xmlns="http://www.w3.org/2000/svg">
<g clip-path="url(#clip0_195_305)">
<mask id="mask0_195_305" style="mask-type:luminance" maskUnits="userSpaceOnUse" x="-1" y="0" width="438" height="53">
<path d="M158.721 24.3011H159.599C160.122 24.1842 160.634 24.0239 161.13 23.8218C161.634 23.6133 162.118 23.3585 162.575 23.0606C163.494 22.4478 164.283 21.6625 164.899 20.7489C165.21 20.3008 165.466 19.8183 165.665 19.3112C165.88 18.8227 166.042 18.3122 166.146 17.7888C166.203 17.2452 166.203 16.6973 166.146 16.1537C166.202 15.6195 166.202 15.081 166.146 14.5468C165.912 13.5376 165.489 12.5813 164.899 11.7277C164.283 10.8141 163.494 10.0288 162.575 9.41596C162.144 9.04038 161.668 8.7185 161.158 8.45745C160.668 8.23893 160.155 8.07808 159.628 7.97819C159.096 7.86619 158.555 7.80951 158.012 7.80904H146.023L158.721 24.3011ZM99.2003 3.89043C99.1927 3.38761 99.2891 2.8886 99.4837 2.42447C99.6796 1.9496 99.9687 1.51832 100.334 1.15585C100.701 0.816648 101.123 0.540384 101.581 0.338298C102.064 0.125404 102.584 0.0103938 103.112 0C103.616 0.00629385 104.115 0.101753 104.585 0.281915C105.062 0.477474 105.496 0.764972 105.861 1.12785C106.226 1.49073 106.515 1.92181 106.711 2.39628C106.892 2.86434 106.988 3.36073 106.995 3.86223V31.8846C106.992 33.2565 106.859 34.6252 106.598 35.9723C106.321 37.3241 105.913 38.6459 105.379 39.9192C104.852 41.1936 104.196 42.412 103.423 43.5559C102.664 44.7097 101.78 45.7779 100.788 46.7415C99.8066 47.7152 98.7341 48.5932 97.5848 49.3633C96.4348 50.1322 95.2098 50.7839 93.9285 51.3085C92.6567 51.8354 91.3376 52.2413 89.9888 52.5207C87.265 53.047 84.4648 53.047 81.741 52.5207C80.3923 52.2413 79.0732 51.8354 77.8014 51.3085C76.52 50.7839 75.2951 50.1322 74.1451 49.3633C71.8392 47.8218 69.8563 45.8494 68.3065 43.5559C67.5335 42.412 66.8783 41.1936 66.3508 39.9192C65.8421 38.6613 65.4531 37.3588 65.1887 36.0287C64.9291 34.6719 64.7962 33.294 64.7919 31.9128V3.89043C64.7843 3.38761 64.8808 2.8886 65.0754 2.42447C65.2712 1.9496 65.5603 1.51832 65.9257 1.15585C66.2931 0.816648 66.7145 0.540384 67.1728 0.338298C67.6289 0.136061 68.1193 0.0212854 68.6182 0C69.1313 0.00928605 69.6392 0.104595 70.1204 0.281915C70.5857 0.483673 71.0087 0.770562 71.3675 1.12766C71.7329 1.49013 72.0219 1.92141 72.2178 2.39628C72.4124 2.86041 72.5089 3.35942 72.5012 3.86223V31.8846C72.5004 32.7554 72.5858 33.6241 72.7563 34.4782C72.9251 35.3291 73.1815 36.1604 73.5216 36.959C73.8526 37.763 74.2708 38.5287 74.7687 39.2426C76.2501 41.4301 78.3372 43.1438 80.7774 44.1761C81.5803 44.5143 82.4161 44.7694 83.2716 44.9372C84.9838 45.2753 86.7461 45.2753 88.4583 44.9372C89.3138 44.7694 90.1496 44.5143 90.9525 44.1761C91.7608 43.8468 92.5306 43.4309 93.2483 42.9356C94.7195 41.9612 95.9816 40.7059 96.9612 39.2426C97.4486 38.5223 97.8661 37.7577 98.2083 36.959C98.5484 36.1604 98.8048 35.3291 98.9736 34.4782C99.1441 33.6241 99.2295 32.7554 99.2287 31.8846L99.2003 3.89043ZM148.999 24.3293L135.196 6.39947C135.057 6.23239 134.934 6.0531 134.827 5.86383C134.712 5.67243 134.608 5.47478 134.516 5.27181C134.432 5.05373 134.375 4.82662 134.346 4.59521C134.316 4.36121 134.316 4.12443 134.346 3.89043C134.348 3.38572 134.454 2.8868 134.657 2.42447C134.853 1.95628 135.132 1.52665 135.479 1.15585C135.852 0.809948 136.284 0.53308 136.755 0.338298C137.192 0.139735 137.663 0.0249654 138.144 0L157.984 0C159.03 0.00405244 160.074 0.107896 161.101 0.310106C162.131 0.507822 163.138 0.810114 164.106 1.21223C165.097 1.61832 166.046 2.11869 166.94 2.70638C167.821 3.2868 168.638 3.95768 169.378 4.70798C170.124 5.45112 170.798 6.26291 171.39 7.13245C171.967 8.02515 172.461 8.96885 172.864 9.9516C173.286 10.9198 173.6 11.9314 173.799 12.9681C174.002 13.9895 174.107 15.0279 174.111 16.0691C174.105 17.1196 174 18.1672 173.799 19.1984C173.607 20.2152 173.303 21.2079 172.892 22.1585C172.495 23.1441 172.001 24.0884 171.418 24.9777C170.819 25.8508 170.146 26.6713 169.406 27.4303C168.74 28.0824 168.019 28.6765 167.252 29.2064C166.482 29.7464 165.667 30.218 164.814 30.616L163.907 31.0106L175.726 46.2622C176.036 46.6669 176.267 47.1259 176.407 47.6154C176.492 48.1098 176.492 48.6152 176.407 49.1096C176.345 49.6163 176.181 50.1054 175.925 50.5473C175.389 51.4269 174.539 52.0718 173.544 52.3516C173.047 52.4368 172.539 52.4368 172.042 52.3516C171.017 52.2122 170.09 51.675 169.463 50.8575L154.951 31.9973H142.055V48.9122C142.053 49.4169 141.947 49.9159 141.743 50.3782C141.347 51.3277 140.595 52.0863 139.646 52.4926C139.165 52.6699 138.657 52.7652 138.144 52.7745C137.618 52.797 137.093 52.7082 136.605 52.5138C136.116 52.3194 135.674 52.0238 135.309 51.6468C134.944 51.2843 134.655 50.8531 134.459 50.3782C134.255 49.9159 134.149 49.4169 134.147 48.9122V28.1915C134.138 27.1402 134.545 26.1275 135.281 25.3723C135.645 25.0089 136.079 24.7214 136.556 24.5266C137.022 24.3271 137.523 24.2217 138.03 24.2165L148.999 24.3293ZM205.486 52.7181C204.429 52.727 203.411 52.3219 202.652 51.5904C202.287 51.228 201.998 50.7967 201.802 50.3218C201.607 49.8577 201.511 49.3587 201.518 48.8559C201.514 48.3442 201.61 47.8366 201.802 47.3617C202.211 46.4277 202.96 45.6823 203.899 45.2755C204.377 45.0849 204.887 44.9891 205.401 44.9936H237.741C238.255 44.9891 238.766 45.0849 239.243 45.2755C239.708 45.4773 240.131 45.7642 240.49 46.1213C240.863 46.4886 241.157 46.9285 241.352 47.4135C241.547 47.8985 241.639 48.4183 241.624 48.9404C241.631 49.4432 241.535 49.9422 241.34 50.4064C241.144 50.8813 240.855 51.3125 240.49 51.675C240.135 52.0293 239.71 52.3076 239.243 52.4926C238.767 52.6921 238.257 52.7975 237.741 52.8027L205.486 52.7181ZM205.486 30.5314C204.97 30.5262 204.46 30.4209 203.984 30.2213C203.526 30.0192 203.105 29.7429 202.737 29.4037C202.372 29.0413 202.083 28.61 201.887 28.1351C201.695 27.6701 201.599 27.1717 201.603 26.6691C201.599 26.1575 201.695 25.6499 201.887 25.175C202.316 24.2254 203.098 23.4778 204.069 23.0888C204.545 22.8892 205.055 22.7839 205.571 22.7787H237.741C238.257 22.7839 238.767 22.8892 239.243 23.0888C239.708 23.2906 240.131 23.5775 240.49 23.9346C240.855 24.2863 241.145 24.7084 241.34 25.175C241.532 25.6499 241.628 26.1575 241.624 26.6691C241.628 27.1717 241.532 27.6701 241.34 28.1351C241.144 28.61 240.855 29.0413 240.49 29.4037C240.123 29.7429 239.701 30.0192 239.243 30.2213C238.767 30.4209 238.257 30.5262 237.741 30.5314H205.486ZM205.486 7.97819C204.995 7.94519 204.515 7.82088 204.069 7.6117C203.118 7.24987 202.339 6.54538 201.887 5.6383C201.695 5.16343 201.599 4.65583 201.603 4.14415C201.596 3.64133 201.692 3.14233 201.887 2.67819C202.083 2.20332 202.372 1.77205 202.737 1.40957C203.496 0.67807 204.515 0.273015 205.571 0.281915H237.741C238.254 0.291201 238.762 0.38651 239.243 0.56383C239.702 0.775838 240.124 1.06157 240.49 1.40957C240.855 1.77205 241.144 2.20332 241.34 2.67819C241.535 3.14233 241.631 3.64133 241.624 4.14415C241.631 4.64697 241.535 5.14597 241.34 5.61011C241.144 6.08498 240.855 6.51625 240.49 6.87872C240.131 7.23582 239.708 7.52271 239.243 7.72447C238.766 7.91509 238.255 8.01087 237.741 8.00638L205.486 7.97819ZM296.637 32.2229L288.9 14.4622L273.169 50.5191C272.956 50.9829 272.658 51.4034 272.291 51.7596C271.923 52.1117 271.49 52.3894 271.015 52.5771C270.547 52.761 270.045 52.8474 269.542 52.8309C269.034 52.8287 268.533 52.7232 268.068 52.5207C267.603 52.319 267.179 52.0321 266.821 51.675C266.473 51.3042 266.195 50.8746 265.999 50.4064C265.809 49.9407 265.713 49.4428 265.715 48.9404C265.73 48.4252 265.846 47.9177 266.055 47.4463L285.329 3.15745C285.555 2.68653 285.873 2.26492 286.264 1.91702C286.622 1.55245 287.058 1.27298 287.539 1.09947C288.449 0.735691 289.464 0.735691 290.374 1.09947C290.605 1.1836 290.824 1.29732 291.026 1.43777L291.592 1.91702C291.767 2.08485 291.92 2.27435 292.046 2.48085C292.179 2.68128 292.302 2.88828 292.414 3.10106L300.917 22.4122L309.42 3.12926C309.619 2.65722 309.919 2.23394 310.299 1.88883C310.657 1.52426 311.093 1.24479 311.574 1.07128C312.484 0.7075 313.499 0.7075 314.409 1.07128C314.634 1.16706 314.852 1.28017 315.06 1.40957L315.627 1.88883C315.803 2.06358 315.964 2.25214 316.109 2.45266L316.449 3.07287L335.751 47.3899C335.951 47.863 336.057 48.3706 336.063 48.884C336.061 49.3835 335.975 49.879 335.807 50.35C335.605 50.8146 335.327 51.2431 334.986 51.6186C334.627 51.9757 334.204 52.2626 333.738 52.4644C333.263 52.6639 332.753 52.7693 332.236 52.7745C331.733 52.7864 331.232 52.7002 330.762 52.5207C330.292 52.326 329.86 52.0491 329.487 51.7032C329.128 51.3463 328.84 50.9256 328.637 50.4628L312.821 14.3777L305.084 32.1383L311.773 47.4463C311.973 47.9096 312.079 48.4079 312.084 48.9122C312.085 49.421 311.998 49.9262 311.829 50.4064C311.633 50.8813 311.344 51.3125 310.979 51.675C310.63 52.0441 310.205 52.3328 309.732 52.5207C309.267 52.7232 308.766 52.8287 308.258 52.8309C307.755 52.8428 307.254 52.7566 306.784 52.5771C306.314 52.3823 305.882 52.1055 305.509 51.7596C305.15 51.4027 304.861 50.9819 304.659 50.5191L300.861 41.8362L297.091 50.5191C296.878 50.9762 296.591 51.3953 296.241 51.7596C295.858 52.1059 295.416 52.3826 294.937 52.5771C294.468 52.761 293.967 52.8474 293.463 52.8309C292.956 52.8287 292.454 52.7232 291.989 52.5207C291.516 52.3328 291.091 52.0441 290.742 51.675C290.382 51.3139 290.102 50.8818 289.92 50.4064C289.729 49.9315 289.632 49.4239 289.637 48.9122C289.658 48.4098 289.764 47.9144 289.949 47.4463L296.637 32.2229ZM360.636 4.03138C360.638 3.52667 360.744 3.02775 360.948 2.56543C361.144 2.09056 361.433 1.65928 361.798 1.29681C362.153 0.942466 362.578 0.664233 363.045 0.479255C363.521 0.279671 364.031 0.174334 364.547 0.169149C365.051 0.178338 365.55 0.273701 366.021 0.451064C366.493 0.655936 366.925 0.942265 367.297 1.29681C367.644 1.66761 367.923 2.09723 368.118 2.56543C368.322 3.02775 368.428 3.52667 368.43 4.03138V49.1096C368.425 49.6231 368.319 50.1306 368.118 50.6037C367.915 51.0595 367.638 51.4787 367.297 51.8442C366.932 52.2076 366.499 52.4951 366.021 52.6899C365.555 52.8894 365.054 52.9948 364.547 53C364.031 52.9948 363.521 52.8895 363.045 52.6899C362.106 52.2831 361.357 51.5377 360.948 50.6037C360.747 50.1306 360.641 49.6231 360.636 49.1096V4.03138ZM414.488 32.9277L400.004 51.3931C399.685 51.7943 399.291 52.1295 398.842 52.3798C398.41 52.6389 397.927 52.8024 397.425 52.859C396.928 52.9437 396.42 52.9437 395.923 52.859C395.429 52.7263 394.966 52.4963 394.562 52.1824C394.166 51.8586 393.83 51.4672 393.57 51.0266C393.089 50.1686 392.957 49.1594 393.202 48.2075C393.342 47.7269 393.573 47.2772 393.882 46.8824L409.584 26.8947L393.967 6.51223C393.344 5.71114 393.059 4.69973 393.174 3.69308C393.239 3.18737 393.403 2.69912 393.656 2.25532C393.915 1.82297 394.251 1.44092 394.648 1.12766C395.453 0.507517 396.47 0.224324 397.482 0.338298C397.978 0.402249 398.458 0.555074 398.899 0.789362C399.355 1.04138 399.751 1.38742 400.061 1.80426L414.544 20.2415L429.028 1.77606C429.327 1.35991 429.714 1.01358 430.161 0.76117C430.613 0.527069 431.102 0.374354 431.607 0.310106C432.103 0.211381 432.613 0.211381 433.109 0.310106C433.599 0.454701 434.059 0.68371 434.469 0.986702C434.866 1.29997 435.202 1.68201 435.461 2.11436C435.697 2.56321 435.85 3.04999 435.915 3.55213C436.029 4.04373 436.029 4.55467 435.915 5.04628C435.793 5.5423 435.56 6.00473 435.235 6.39947L419.476 26.5L435.15 46.4878C435.469 46.8758 435.701 47.3277 435.83 47.8128C435.942 48.3046 435.942 48.8151 435.83 49.3069C435.765 49.8091 435.612 50.2958 435.376 50.7447C435.125 51.1907 434.788 51.5833 434.384 51.9005C433.974 52.2035 433.514 52.4325 433.024 52.5771C432.285 52.7806 431.503 52.7606 430.776 52.5196C430.049 52.2785 429.411 51.8275 428.943 51.2239L414.488 32.9277ZM7.76587 32.0819V48.9968C7.77351 49.4996 7.67703 49.9986 7.48244 50.4628C7.28658 50.9376 6.99751 51.3689 6.63215 51.7314C5.87292 52.4629 4.85484 52.8679 3.79785 52.859C3.29233 52.8666 2.79065 52.7707 2.32402 52.5771C1.8466 52.3823 1.413 52.0948 1.04858 51.7314C0.6916 51.3678 0.41204 50.9363 0.226637 50.4628C0.0632191 50.0209 -0.0137442 49.552 -0.000106595 49.0814V28.1915C0.00512496 27.6871 0.111103 27.1888 0.311666 26.7255C0.475328 26.2167 0.756871 25.7532 1.13361 25.3723C1.49803 25.0089 1.93163 24.7214 2.40905 24.5266C2.87386 24.3241 3.37546 24.2186 3.88288 24.2165H23.723C24.3179 24.2579 24.9153 24.2485 25.5086 24.1883C26.0313 24.0714 26.5433 23.9111 27.0391 23.709C27.4949 23.493 27.9311 23.2384 28.3429 22.9479C28.7994 22.64 29.2264 22.2908 29.6183 21.9048C29.9984 21.5078 30.3489 21.0838 30.667 20.6362C30.9665 20.1816 31.2227 19.7003 31.4323 19.1984C31.6354 18.7053 31.7966 18.196 31.9141 17.6761C32.0047 17.1356 32.052 16.5889 32.0558 16.041C32.0508 15.5025 32.0034 14.9652 31.9141 14.434C31.7966 13.9049 31.6354 13.3863 31.4323 12.8835C31.2165 12.3936 30.9605 11.9221 30.667 11.4739C30.3489 11.0263 29.9984 10.6023 29.6183 10.2053C29.2264 9.8193 28.7994 9.47012 28.3429 9.16223C27.8896 8.87324 27.4047 8.63677 26.8974 8.45745C26.4538 8.2327 25.9885 8.05324 25.5086 7.92181C24.9681 7.80826 24.4171 7.75157 23.8647 7.75266H4.0246C3.51908 7.76026 3.01739 7.6643 2.55076 7.47075C2.07334 7.27593 1.63975 6.98841 1.27533 6.625C0.539892 5.86982 0.132661 4.85719 0.141608 3.80585C0.109768 3.33883 0.167478 2.87005 0.311666 2.42447C0.497069 1.95091 0.776629 1.51943 1.13361 1.15585C1.50641 0.809948 1.93834 0.53308 2.40905 0.338298C2.87178 0.126139 3.37347 0.0109836 3.88288 0L23.723 0C24.7801 0.0132584 25.8335 0.126535 26.869 0.338298C27.8979 0.540088 28.9042 0.842258 29.8734 1.24043C30.865 1.64505 31.8143 2.1455 32.7077 2.73457C34.4576 3.90898 35.9597 5.41257 37.1292 7.16064C37.7065 8.05334 38.1998 8.99705 38.603 9.97979C39.0452 10.9346 39.4055 11.9248 39.6801 12.9399C39.8834 13.9613 39.9878 14.9997 39.9918 16.041C39.9858 17.0914 39.8815 18.139 39.6801 19.1702C39.4544 20.191 39.1415 21.1907 38.7447 22.1585C38.3415 23.1413 37.8482 24.085 37.2709 24.9777C36.6716 25.8508 35.9984 26.6713 35.2586 27.4303C34.4955 28.1662 33.6705 28.8358 32.7927 29.4319C31.8987 30.012 30.9493 30.5031 29.9584 30.8979C28.9854 31.2925 27.9803 31.6037 26.9541 31.8282C25.9176 32.0305 24.8642 32.1343 23.808 32.1383L7.76587 32.0819Z" fill="white"/>
</mask>
<g mask="url(#mask0_195_305)">
<path d="M436 0H0V53H436V0Z" fill="url(#paint0_linear_195_305)"/>
</g>
</g>
<g clip-path="url(#clip1_195_305)">
<mask id="mask1_195_305" style="mask-type:luminance" maskUnits="userSpaceOnUse" x="50" y="231" width="438" height="53">
<path d="M209.721 255.301H210.599C211.122 255.184 211.634 255.024 212.13 254.822C212.634 254.613 213.118 254.359 213.575 254.061C214.494 253.448 215.283 252.663 215.899 251.749C216.21 251.301 216.466 250.818 216.665 250.311C216.88 249.823 217.042 249.312 217.146 248.789C217.203 248.245 217.203 247.697 217.146 247.154C217.202 246.62 217.202 246.081 217.146 245.547C216.912 244.538 216.489 243.581 215.899 242.728C215.283 241.814 214.494 241.029 213.575 240.416C213.144 240.04 212.668 239.719 212.158 239.457C211.668 239.239 211.155 239.078 210.628 238.978C210.096 238.866 209.555 238.81 209.012 238.809H197.023L209.721 255.301ZM150.2 234.89C150.193 234.388 150.289 233.889 150.484 233.424C150.68 232.95 150.969 232.518 151.334 232.156C151.701 231.817 152.123 231.54 152.581 231.338C153.064 231.125 153.584 231.01 154.112 231C154.616 231.006 155.115 231.102 155.585 231.282C156.062 231.477 156.496 231.765 156.861 232.128C157.226 232.491 157.515 232.922 157.711 233.396C157.892 233.864 157.988 234.361 157.995 234.862V262.885C157.992 264.257 157.859 265.625 157.598 266.972C157.321 268.324 156.913 269.646 156.379 270.919C155.852 272.194 155.196 273.412 154.423 274.556C153.664 275.71 152.78 276.778 151.788 277.741C150.807 278.715 149.734 279.593 148.585 280.363C147.435 281.132 146.21 281.784 144.929 282.309C143.657 282.835 142.338 283.241 140.989 283.521C138.265 284.047 135.465 284.047 132.741 283.521C131.392 283.241 130.073 282.835 128.801 282.309C127.52 281.784 126.295 281.132 125.145 280.363C122.839 278.822 120.856 276.849 119.306 274.556C118.533 273.412 117.878 272.194 117.351 270.919C116.842 269.661 116.453 268.359 116.189 267.029C115.929 265.672 115.796 264.294 115.792 262.913V234.89C115.784 234.388 115.881 233.889 116.075 233.424C116.271 232.95 116.56 232.518 116.926 232.156C117.293 231.817 117.714 231.54 118.173 231.338C118.629 231.136 119.119 231.021 119.618 231C120.131 231.009 120.639 231.105 121.12 231.282C121.586 231.484 122.009 231.771 122.368 232.128C122.733 232.49 123.022 232.921 123.218 233.396C123.412 233.86 123.509 234.359 123.501 234.862V262.885C123.5 263.755 123.586 264.624 123.756 265.478C123.925 266.329 124.182 267.16 124.522 267.959C124.853 268.763 125.271 269.529 125.769 270.243C127.25 272.43 129.337 274.144 131.777 275.176C132.58 275.514 133.416 275.769 134.272 275.937C135.984 276.275 137.746 276.275 139.458 275.937C140.314 275.769 141.15 275.514 141.953 275.176C142.761 274.847 143.531 274.431 144.248 273.936C145.72 272.961 146.982 271.706 147.961 270.243C148.449 269.522 148.866 268.758 149.208 267.959C149.548 267.16 149.805 266.329 149.974 265.478C150.144 264.624 150.23 263.755 150.229 262.885L150.2 234.89ZM199.999 255.329L186.196 237.399C186.057 237.232 185.934 237.053 185.827 236.864C185.712 236.672 185.608 236.475 185.516 236.272C185.432 236.054 185.375 235.827 185.346 235.595C185.316 235.361 185.316 235.124 185.346 234.89C185.348 234.386 185.454 233.887 185.657 233.424C185.853 232.956 186.132 232.527 186.479 232.156C186.852 231.81 187.284 231.533 187.755 231.338C188.192 231.14 188.663 231.025 189.144 231H208.984C210.03 231.004 211.074 231.108 212.101 231.31C213.131 231.508 214.138 231.81 215.106 232.212C216.097 232.618 217.046 233.119 217.94 233.706C218.821 234.287 219.638 234.958 220.378 235.708C221.124 236.451 221.798 237.263 222.39 238.132C222.967 239.025 223.461 239.969 223.864 240.952C224.286 241.92 224.6 242.931 224.799 243.968C225.002 244.989 225.107 246.028 225.111 247.069C225.105 248.12 225 249.167 224.799 250.198C224.607 251.215 224.303 252.208 223.892 253.159C223.495 254.144 223.001 255.088 222.418 255.978C221.819 256.851 221.146 257.671 220.406 258.43C219.74 259.082 219.019 259.677 218.252 260.206C217.482 260.746 216.667 261.218 215.814 261.616L214.907 262.011L226.726 277.262C227.036 277.667 227.267 278.126 227.407 278.615C227.492 279.11 227.492 279.615 227.407 280.11C227.345 280.616 227.181 281.105 226.925 281.547C226.389 282.427 225.539 283.072 224.544 283.352C224.047 283.437 223.539 283.437 223.042 283.352C222.017 283.212 221.09 282.675 220.463 281.857L205.951 262.997H193.055V279.912C193.053 280.417 192.947 280.916 192.743 281.378C192.347 282.328 191.595 283.086 190.646 283.493C190.165 283.67 189.657 283.765 189.144 283.774C188.618 283.797 188.093 283.708 187.605 283.514C187.116 283.319 186.674 283.024 186.309 282.647C185.944 282.284 185.655 281.853 185.459 281.378C185.255 280.916 185.149 280.417 185.147 279.912V259.191C185.138 258.14 185.545 257.128 186.281 256.372C186.645 256.009 187.079 255.721 187.556 255.527C188.022 255.327 188.523 255.222 189.03 255.216L199.999 255.329ZM256.486 283.718C255.429 283.727 254.411 283.322 253.652 282.59C253.287 282.228 252.998 281.797 252.802 281.322C252.607 280.858 252.511 280.359 252.518 279.856C252.514 279.344 252.61 278.837 252.802 278.362C253.211 277.428 253.96 276.682 254.899 276.276C255.377 276.085 255.887 275.989 256.401 275.994H288.741C289.255 275.989 289.766 276.085 290.243 276.276C290.708 276.477 291.131 276.764 291.49 277.121C291.863 277.489 292.157 277.929 292.352 278.414C292.547 278.899 292.639 279.418 292.624 279.94C292.631 280.443 292.535 280.942 292.34 281.406C292.144 281.881 291.855 282.313 291.49 282.675C291.135 283.029 290.71 283.308 290.243 283.493C289.767 283.692 289.257 283.797 288.741 283.803L256.486 283.718ZM256.486 261.531C255.97 261.526 255.46 261.421 254.984 261.221C254.526 261.019 254.105 260.743 253.737 260.404C253.372 260.041 253.083 259.61 252.887 259.135C252.695 258.67 252.599 258.172 252.603 257.669C252.599 257.157 252.695 256.65 252.887 256.175C253.316 255.225 254.098 254.478 255.069 254.089C255.545 253.889 256.055 253.784 256.571 253.779H288.741C289.257 253.784 289.767 253.889 290.243 254.089C290.708 254.291 291.131 254.577 291.49 254.935C291.855 255.286 292.145 255.708 292.34 256.175C292.532 256.65 292.628 257.157 292.624 257.669C292.628 258.172 292.532 258.67 292.34 259.135C292.144 259.61 291.855 260.041 291.49 260.404C291.123 260.743 290.701 261.019 290.243 261.221C289.767 261.421 289.257 261.526 288.741 261.531H256.486ZM256.486 238.978C255.995 238.945 255.515 238.821 255.069 238.612C254.118 238.25 253.339 237.545 252.887 236.638C252.695 236.163 252.599 235.656 252.603 235.144C252.596 234.641 252.692 234.142 252.887 233.678C253.083 233.203 253.372 232.772 253.737 232.41C254.496 231.678 255.515 231.273 256.571 231.282H288.741C289.254 231.291 289.762 231.387 290.243 231.564C290.702 231.776 291.124 232.062 291.49 232.41C291.855 232.772 292.144 233.203 292.34 233.678C292.535 234.142 292.631 234.641 292.624 235.144C292.631 235.647 292.535 236.146 292.34 236.61C292.144 237.085 291.855 237.516 291.49 237.879C291.131 238.236 290.708 238.523 290.243 238.724C289.766 238.915 289.255 239.011 288.741 239.006L256.486 238.978ZM347.637 263.223L339.9 245.462L324.169 281.519C323.956 281.983 323.658 282.403 323.291 282.76C322.923 283.112 322.49 283.389 322.015 283.577C321.547 283.761 321.045 283.847 320.542 283.831C320.034 283.829 319.533 283.723 319.068 283.521C318.603 283.319 318.179 283.032 317.821 282.675C317.473 282.304 317.195 281.875 316.999 281.406C316.809 280.941 316.713 280.443 316.715 279.94C316.73 279.425 316.846 278.918 317.055 278.446L336.329 234.157C336.555 233.687 336.873 233.265 337.264 232.917C337.622 232.552 338.058 232.273 338.539 232.099C339.449 231.736 340.464 231.736 341.374 232.099C341.605 232.184 341.824 232.297 342.026 232.438L342.592 232.917C342.767 233.085 342.92 233.274 343.046 233.481C343.179 233.681 343.302 233.888 343.414 234.101L351.917 253.412L360.42 234.129C360.619 233.657 360.919 233.234 361.299 232.889C361.657 232.524 362.093 232.245 362.574 232.071C363.484 231.707 364.499 231.707 365.409 232.071C365.634 232.167 365.852 232.28 366.06 232.41L366.627 232.889C366.803 233.064 366.964 233.252 367.109 233.453L367.449 234.073L386.751 278.39C386.951 278.863 387.057 279.371 387.063 279.884C387.061 280.383 386.975 280.879 386.807 281.35C386.605 281.815 386.327 282.243 385.986 282.619C385.627 282.976 385.204 283.263 384.738 283.464C384.263 283.664 383.753 283.769 383.236 283.774C382.733 283.786 382.232 283.7 381.762 283.521C381.292 283.326 380.86 283.049 380.487 282.703C380.128 282.346 379.84 281.926 379.637 281.463L363.821 245.378L356.084 263.138L362.773 278.446C362.973 278.91 363.079 279.408 363.084 279.912C363.085 280.421 362.998 280.926 362.829 281.406C362.633 281.881 362.344 282.313 361.979 282.675C361.63 283.044 361.205 283.333 360.732 283.521C360.267 283.723 359.766 283.829 359.258 283.831C358.755 283.843 358.254 283.757 357.784 283.577C357.314 283.382 356.882 283.105 356.509 282.76C356.15 282.403 355.861 281.982 355.659 281.519L351.861 272.836L348.091 281.519C347.878 281.976 347.591 282.395 347.241 282.76C346.858 283.106 346.416 283.383 345.937 283.577C345.468 283.761 344.967 283.847 344.463 283.831C343.956 283.829 343.454 283.723 342.989 283.521C342.516 283.333 342.091 283.044 341.742 282.675C341.382 282.314 341.102 281.882 340.92 281.406C340.729 280.932 340.632 280.424 340.637 279.912C340.658 279.41 340.764 278.914 340.949 278.446L347.637 263.223ZM411.636 235.031C411.638 234.527 411.744 234.028 411.948 233.565C412.144 233.091 412.433 232.659 412.798 232.297C413.153 231.942 413.578 231.664 414.045 231.479C414.521 231.28 415.031 231.174 415.547 231.169C416.051 231.178 416.55 231.274 417.021 231.451C417.493 231.656 417.925 231.942 418.297 232.297C418.644 232.668 418.923 233.097 419.118 233.565C419.322 234.028 419.428 234.527 419.43 235.031V280.11C419.425 280.623 419.319 281.131 419.118 281.604C418.915 282.06 418.638 282.479 418.297 282.844C417.932 283.208 417.499 283.495 417.021 283.69C416.555 283.889 416.054 283.995 415.547 284C415.031 283.995 414.521 283.889 414.045 283.69C413.106 283.283 412.357 282.538 411.948 281.604C411.747 281.131 411.641 280.623 411.636 280.11V235.031ZM465.488 263.928L451.004 282.393C450.685 282.794 450.291 283.129 449.842 283.38C449.41 283.639 448.927 283.802 448.425 283.859C447.928 283.944 447.42 283.944 446.923 283.859C446.429 283.726 445.966 283.496 445.562 283.182C445.166 282.859 444.83 282.467 444.57 282.027C444.089 281.169 443.957 280.159 444.202 279.207C444.342 278.727 444.573 278.277 444.882 277.882L460.584 257.895L444.967 237.512C444.344 236.711 444.059 235.7 444.174 234.693C444.239 234.187 444.403 233.699 444.656 233.255C444.915 232.823 445.251 232.441 445.648 232.128C446.453 231.508 447.47 231.224 448.482 231.338C448.978 231.402 449.458 231.555 449.899 231.789C450.355 232.041 450.751 232.387 451.061 232.804L465.544 251.241L480.028 232.776C480.327 232.36 480.714 232.014 481.161 231.761C481.613 231.527 482.102 231.374 482.607 231.31C483.103 231.211 483.613 231.211 484.109 231.31C484.599 231.455 485.059 231.684 485.469 231.987C485.866 232.3 486.202 232.682 486.461 233.114C486.697 233.563 486.85 234.05 486.915 234.552C487.029 235.044 487.029 235.555 486.915 236.046C486.793 236.542 486.56 237.005 486.235 237.399L470.476 257.5L486.15 277.488C486.469 277.876 486.701 278.328 486.83 278.813C486.942 279.305 486.942 279.815 486.83 280.307C486.765 280.809 486.612 281.296 486.376 281.745C486.125 282.191 485.788 282.583 485.384 282.901C484.974 283.204 484.514 283.433 484.024 283.577C483.285 283.781 482.503 283.761 481.776 283.52C481.049 283.279 480.411 282.827 479.943 282.224L465.488 263.928ZM58.7659 263.082V279.997C58.7735 280.5 58.677 280.999 58.4824 281.463C58.2866 281.938 57.9975 282.369 57.6321 282.731C56.8729 283.463 55.8548 283.868 54.7979 283.859C54.2923 283.867 53.7906 283.771 53.324 283.577C52.8466 283.382 52.413 283.095 52.0486 282.731C51.6916 282.368 51.412 281.936 51.2266 281.463C51.0632 281.021 50.9863 280.552 50.9999 280.081V259.191C51.0051 258.687 51.1111 258.189 51.3117 257.726C51.4753 257.217 51.7569 256.753 52.1336 256.372C52.498 256.009 52.9316 255.721 53.409 255.527C53.8739 255.324 54.3755 255.219 54.8829 255.216H74.723C75.3179 255.258 75.9153 255.248 76.5086 255.188C77.0313 255.071 77.5433 254.911 78.0391 254.709C78.4949 254.493 78.9311 254.238 79.3429 253.948C79.7994 253.64 80.2264 253.291 80.6183 252.905C80.9984 252.508 81.3489 252.084 81.667 251.636C81.9665 251.182 82.2227 250.7 82.4323 250.198C82.6354 249.705 82.7966 249.196 82.9141 248.676C83.0047 248.136 83.052 247.589 83.0558 247.041C83.0508 246.502 83.0034 245.965 82.9141 245.434C82.7966 244.905 82.6354 244.386 82.4323 243.884C82.2165 243.394 81.9605 242.922 81.667 242.474C81.3489 242.026 80.9984 241.602 80.6183 241.205C80.2264 240.819 79.7994 240.47 79.3429 240.162C78.8896 239.873 78.4047 239.637 77.8974 239.457C77.4538 239.233 76.9885 239.053 76.5086 238.922C75.9681 238.808 75.4171 238.752 74.8647 238.753H55.0246C54.5191 238.76 54.0174 238.664 53.5508 238.471C53.0733 238.276 52.6397 237.988 52.2753 237.625C51.5399 236.87 51.1327 235.857 51.1416 234.806C51.1098 234.339 51.1675 233.87 51.3117 233.424C51.4971 232.951 51.7766 232.519 52.1336 232.156C52.5064 231.81 52.9383 231.533 53.409 231.338C53.8718 231.126 54.3735 231.011 54.8829 231H74.723C75.7801 231.013 76.8335 231.127 77.869 231.338C78.8979 231.54 79.9042 231.842 80.8734 232.24C81.865 232.645 82.8143 233.146 83.7077 233.735C85.4576 234.909 86.9597 236.413 88.1292 238.161C88.7065 239.053 89.1998 239.997 89.603 240.98C90.0452 241.935 90.4055 242.925 90.6801 243.94C90.8834 244.961 90.9878 246 90.9918 247.041C90.9858 248.091 90.8815 249.139 90.6801 250.17C90.4544 251.191 90.1415 252.191 89.7447 253.159C89.3415 254.141 88.8482 255.085 88.2709 255.978C87.6716 256.851 86.9984 257.671 86.2586 258.43C85.4955 259.166 84.6705 259.836 83.7927 260.432C82.8987 261.012 81.9493 261.503 80.9584 261.898C79.9854 262.293 78.9803 262.604 77.9541 262.828C76.9176 263.03 75.8642 263.134 74.808 263.138L58.7659 263.082Z" fill="white"/>
</mask>
<g mask="url(#mask1_195_305)">
<path d="M487 231H314V284H487V231Z" fill="url(#paint1_linear_195_305)"/>
</g>
</g>
<defs>
<linearGradient id="paint0_linear_195_305" x1="233.572" y1="-8.44891" x2="233.572" y2="61.9587" gradientUnits="userSpaceOnUse">
<stop stop-color="#D9B340"/>
<stop offset="0.5" stop-color="#FFF382"/>
<stop offset="1" stop-color="#D4A53C"/>
</linearGradient>
<linearGradient id="paint1_linear_195_305" x1="406.679" y1="222.551" x2="406.679" y2="292.959" gradientUnits="userSpaceOnUse">
<stop stop-color="#D9B340"/>
<stop offset="0.5" stop-color="#FFF382"/>
<stop offset="1" stop-color="#D4A53C"/>
</linearGradient>
<clipPath id="clip0_195_305">
<rect width="252" height="53" fill="white"/>
</clipPath>
<clipPath id="clip1_195_305">
<rect width="173" height="53" fill="white" transform="translate(314 231)"/>
</clipPath>
</defs>
</svg>
