<svg class = "svg-icon" width="16" height="19" viewBox="0 0 16 19" fill="none" xmlns="http://www.w3.org/2000/svg">
<g id="Group">
<path id="Vector" d="M7.10612 0.37223C5.97318 0.565549 4.85822 1.18147 4.13889 2.01319C2.38104 4.05878 2.47995 7.00802 4.36368 8.89175C6.24292 10.771 9.20115 10.8699 11.2288 9.12554C11.8582 8.58604 12.4336 7.70936 12.6944 6.90911C13.4542 4.58029 12.4201 2.02668 10.2622 0.898238C9.27309 0.381222 8.14464 0.196894 7.10612 0.37223ZM8.46834 1.7929C10.397 2.08962 11.7503 3.91491 11.4715 5.83462C11.0939 8.40171 8.23906 9.75045 6.04061 8.39722C4.78179 7.62394 4.10742 6.12235 4.38167 4.70168C4.75931 2.7595 6.53515 1.49618 8.46834 1.7929Z" fill="#FAFAFA"/>
<path id="Vector_2" d="M12.6494 9.66049C12.546 9.70994 12.4202 9.81784 12.3752 9.89427C12.1459 10.2764 12.2089 10.5237 12.6674 11.0182C13.6745 12.1152 14.2769 13.5089 14.3713 14.988C14.4118 15.5769 14.3713 15.6938 14.0117 16.031C12.636 17.3168 8.58975 17.9193 5.19542 17.3393C3.7253 17.092 2.42602 16.593 1.84606 16.058C1.46841 15.7028 1.42346 15.5859 1.45942 15.015C1.54934 13.5449 2.15177 12.1152 3.12736 11.0632C3.48702 10.6675 3.57244 10.5102 3.54097 10.2494C3.48702 9.76839 2.94303 9.45818 2.52942 9.67398C2.35858 9.76389 1.86404 10.2854 1.54035 10.726C0.623205 11.9623 0.0971974 13.4504 0.0162732 15.0285C-0.0241889 15.8827 0.128668 16.3277 0.672659 16.9077C2.60135 18.9578 8.55828 19.6546 12.6764 18.3059C13.8049 17.9372 14.6276 17.4697 15.1626 16.8987C15.7021 16.3277 15.8549 15.8827 15.8145 15.0285C15.7156 13.1312 14.9558 11.3329 13.697 10.0202C13.2474 9.55259 13.0226 9.47616 12.6494 9.66049Z" fill="#FAFAFA"/>
</g>
</svg>
