<svg width="30" height="31" viewBox="0 0 30 31" fill="none" xmlns="http://www.w3.org/2000/svg">
<g id="Group">
<path id="Vector" d="M10.2615 0.0923271C8.83889 0.612648 7.818 2.82566 7.25158 6.58647C7.13302 7.35049 6.91567 9.41202 6.91567 9.74792C6.91567 9.83354 6.81688 9.86648 6.47439 9.90599C4.85414 10.0772 3.28659 10.8478 2.12081 12.04C0.895744 13.2914 0 15.1817 0 16.5187C0 18.1192 1.27117 19.7987 3.00996 20.4639C3.53029 20.6681 4.45238 20.8723 4.83438 20.8723H5.03856L6.04627 23.7571C6.59953 25.3378 7.0474 26.6551 7.0474 26.6748C7.0474 26.7012 6.94202 26.7407 6.81688 26.7605C6.44804 26.8329 6.0331 27.0305 5.76306 27.2676C4.96611 27.9658 5.15712 29.3489 6.12531 29.8956L6.4217 30.0602L9.8466 30.0932C13.1398 30.1261 13.2913 30.1327 13.7918 30.2776C14.299 30.4159 14.3912 30.4225 17.6514 30.4225C20.9841 30.4225 20.9907 30.4225 21.4452 30.2644C23.7636 29.4806 25.6736 27.7748 26.5232 25.733C26.7472 25.1797 26.7669 25.1534 26.9645 25.1534C27.5573 25.1534 28.3872 24.7714 28.8877 24.2708C30.0667 23.0919 30.0667 21.1555 28.8877 19.9765C28.3806 19.476 27.6956 19.1664 26.8855 19.0808C26.7604 19.061 26.7011 18.9688 26.5364 18.4683C25.5616 15.5505 23.3816 13.5153 20.4375 12.7776C19.5351 12.5537 18.9028 12.4878 17.6844 12.4944C15.8138 12.5076 14.299 12.7579 13.1266 13.2519L12.5931 13.4758L12.3823 12.883L12.1716 12.2903L12.3955 12.119C12.8434 11.7699 13.7523 10.9269 14.299 10.3473C15.7216 8.85218 16.6701 7.25169 17.1048 5.61169C17.2431 5.07161 17.276 4.81474 17.276 4.01121C17.2826 3.20109 17.2628 2.97715 17.1311 2.50952C16.9335 1.79819 16.8018 1.64012 16.4395 1.64012C15.3199 1.64012 13.693 2.30534 12.7709 3.13522L12.5272 3.35916L12.4811 2.77956C12.3494 0.902449 11.8027 -0.0130558 10.8214 0.000118256C10.6501 0.000118256 10.3933 0.0462227 10.2615 0.0923271ZM11.1902 1.021C11.5195 1.42277 11.6249 1.96944 11.6249 3.22084V4.30759L11.2429 4.90036C10.4328 6.14519 9.75439 7.84447 9.38555 9.5635C9.27359 10.0707 9.267 10.0838 9.09576 10.0443C9.00355 10.0245 8.66764 9.97186 8.3515 9.93234L7.7719 9.84672V9.53057C7.7719 9.01025 7.95632 7.3439 8.14073 6.25057C8.45688 4.34711 8.93768 2.79273 9.49094 1.86406C9.85977 1.25811 10.4262 0.816826 10.8807 0.79048C10.9399 0.783894 11.0782 0.889275 11.1902 1.021ZM16.3868 2.92446C16.5252 3.56992 16.4527 4.90695 16.2419 5.62486C16.0114 6.40205 15.3923 7.64687 14.8391 8.42406C14.3978 9.04318 12.6721 10.8478 12.0333 11.355L11.7237 11.6053L11.368 11.2694C11.0321 10.9532 10.4394 10.5383 10.1957 10.4461C10.0442 10.3934 10.0442 10.3736 10.2418 9.52398C10.9795 6.27033 12.6524 3.75434 14.6678 2.88494C15.1091 2.69394 15.8665 2.49635 16.1036 2.5161C16.2881 2.52928 16.3078 2.55562 16.3868 2.92446ZM8.14073 10.7293C9.24724 10.8676 10.0508 11.1903 10.6633 11.7502C11.3088 12.3429 11.6974 13.107 11.8225 14.0225C11.9081 14.6811 12.1452 14.7667 12.7775 14.3584C14.3385 13.3507 17.961 12.9818 20.3321 13.6009C22.5319 14.1674 24.2971 15.5966 25.285 17.612C25.8712 18.7976 26.1544 19.9041 26.2861 21.5309C26.4969 24.0469 25.8053 26.0953 24.2246 27.6299C23.3947 28.44 22.4331 29.0328 21.32 29.4279L20.7338 29.6321H17.7305C16.0378 29.6321 14.5361 29.5992 14.2924 29.5663C13.693 29.4741 12.8961 29.0657 12.4548 28.631C11.5261 27.7221 11.0519 26.4641 11.0387 24.857C11.0321 23.9744 11.1309 23.5529 11.4734 22.9009C11.8357 22.2159 12.6458 21.5375 13.3901 21.2938C13.5811 21.2345 13.7852 21.1423 13.8511 21.083C14.0026 20.9513 13.996 20.6549 13.8313 20.51C13.6469 20.3454 13.3308 20.4112 12.5799 20.7801C11.7303 21.2016 11.0717 21.8471 10.6765 22.6506C10.334 23.3487 10.2088 23.9349 10.2088 24.8307C10.2088 26.4377 10.6699 27.8275 11.5656 28.8813L11.9279 29.3028H9.37238C7.06716 29.3028 6.79712 29.2896 6.59294 29.1843C6.27021 29.0196 6.10555 28.7693 6.09896 28.4202C6.08579 27.9065 6.53366 27.5969 7.44258 27.485C7.84435 27.4389 8.03535 27.3137 8.03535 27.0964C8.03535 26.8922 5.73671 20.3388 5.62475 20.2071C5.55888 20.1346 5.35471 20.0885 4.96611 20.0556C3.64884 19.9502 2.69382 19.5484 1.90346 18.7646C1.13285 18.0072 0.724499 17.0588 0.823294 16.2684C0.97478 15.0697 1.74538 13.5944 2.76627 12.5669C4.18892 11.1376 6.11214 10.479 8.14073 10.7293ZM27.7878 20.1741C27.9591 20.2663 28.2094 20.4573 28.3477 20.6154C29.1446 21.498 29.1512 22.7494 28.3543 23.6254C28.0908 23.9218 27.4124 24.2972 27.149 24.2972C27.0041 24.2972 26.9909 24.2774 27.0304 24.0469C27.0502 23.9152 27.0897 23.3224 27.1094 22.7428C27.149 21.7812 27.1028 21.0501 26.9645 20.1346L26.925 19.8975L27.2016 19.9568C27.3531 19.9897 27.6166 20.0885 27.7878 20.1741Z" fill="#FF8585"/>
<path id="Vector_2" d="M4.14276 13.3177C3.4446 13.7854 3.4446 14.6548 4.14276 15.1224C4.78822 15.5571 5.73007 15.0236 5.73007 14.2201C5.73007 13.6471 5.24926 13.1663 4.67625 13.1663C4.46549 13.1663 4.29424 13.2124 4.14276 13.3177ZM4.83432 14.062C4.8936 14.1147 4.9397 14.1871 4.9397 14.2201C4.9397 14.2925 4.7487 14.4835 4.67625 14.4835C4.6038 14.4835 4.4128 14.2925 4.4128 14.2201C4.4128 14.1476 4.6038 13.9566 4.67625 13.9566C4.70918 13.9566 4.78163 14.0027 4.83432 14.062Z" fill="#FF8585"/>
</g>
</svg>
