<svg class = "svg-icon" width="23" height="19" viewBox="0 0 23 19" fill="none" xmlns="http://www.w3.org/2000/svg">
<g id="Group">
<path id="Vector" d="M8.77364 0.065791C8.68494 0.11225 7.8529 1.12168 6.16348 3.22924L3.68425 6.32933H2.50588C1.40353 6.32933 1.31484 6.33355 1.15856 6.4138C1.04875 6.4687 0.960056 6.5574 0.90515 6.66721C0.824902 6.82348 0.820679 6.91218 0.820679 8.22993C0.820679 9.54768 0.824902 9.63637 0.90515 9.79264C1.0403 10.0587 1.23036 10.1305 1.78365 10.1305H2.24402L3.43928 14.3203C4.09816 16.6264 4.67256 18.5861 4.7148 18.6706C4.76548 18.7719 4.85418 18.8606 4.95977 18.9155C5.12448 19 5.19628 19 11.633 19C18.0697 19 18.1415 19 18.3062 18.9155C18.4118 18.8606 18.5005 18.7719 18.5512 18.6706C18.5934 18.5861 19.1678 16.6264 19.8267 14.3203L21.022 10.1305H21.4823C22.0356 10.1305 22.2257 10.0587 22.3608 9.79264C22.4411 9.63637 22.4453 9.54768 22.4453 8.22993C22.4453 6.91218 22.4411 6.82348 22.3608 6.66721C22.3059 6.5574 22.2172 6.4687 22.1074 6.4138C21.9511 6.33355 21.8624 6.32933 20.7601 6.32933H19.5817L17.1025 3.22924C15.2441 0.906279 14.5895 0.116474 14.4797 0.0615675C13.9517 -0.187622 13.3773 0.378334 13.6434 0.889385C13.6814 0.961185 14.6571 2.20291 15.8185 3.65159C16.9758 5.10027 17.9261 6.29554 17.9261 6.30821C17.9261 6.32088 15.0963 6.32933 11.633 6.32933C8.16967 6.32933 5.33989 6.32088 5.33989 6.30821C5.33989 6.29554 6.29019 5.10027 7.44744 3.65159C8.60892 2.20291 9.58456 0.961185 9.62257 0.889385C9.88866 0.374111 9.29736 -0.19607 8.77364 0.065791ZM21.1782 8.22993V8.86346H11.633H2.08775V8.22993V7.59639H11.633H21.1782V8.22993ZM19.6831 10.2023C19.6704 10.2446 19.1847 11.9551 18.5976 14.0035L17.5333 17.7329H11.633H5.73268L4.66834 14.0035C4.08127 11.9551 3.59556 10.2446 3.58289 10.2023C3.56177 10.1348 3.96301 10.1305 11.633 10.1305C19.303 10.1305 19.7042 10.1348 19.6831 10.2023Z" fill="#FAFAFA"/>
<path id="Vector_2" d="M7.24047 11.4698C7.03352 11.5754 6.90259 11.7908 6.90259 12.0188C6.90259 12.3398 7.5319 16.0101 7.61215 16.1453C7.92891 16.6859 8.76095 16.4705 8.76095 15.8454C8.76095 15.5244 8.13164 11.8541 8.0514 11.719C7.88668 11.436 7.52345 11.322 7.24047 11.4698Z" fill="#FAFAFA"/>
<path id="Vector_3" d="M11.3289 11.4866C11.2317 11.5373 11.1346 11.6344 11.0839 11.7358C11.0037 11.8963 10.9995 11.9808 10.9995 13.9321C10.9995 15.8833 11.0037 15.9678 11.0839 16.1283C11.1811 16.3184 11.4218 16.4662 11.633 16.4662C11.8442 16.4662 12.0849 16.3184 12.182 16.1283C12.2623 15.9678 12.2665 15.8833 12.2665 13.9321C12.2665 11.9808 12.2623 11.8963 12.182 11.7358C12.0258 11.4275 11.6457 11.3177 11.3289 11.4866Z" fill="#FAFAFA"/>
<path id="Vector_4" d="M15.5609 11.4444C15.4257 11.4993 15.3117 11.6049 15.2399 11.7443C15.1723 11.8752 14.5472 15.5751 14.5472 15.8454C14.5472 16.4705 15.3793 16.6859 15.696 16.1453C15.7763 16.0101 16.4056 12.3398 16.4056 12.0188C16.4056 11.588 15.9579 11.2882 15.5609 11.4444Z" fill="#FAFAFA"/>
</g>
</svg>
