<svg width="31" height="29" viewBox="0 0 31 29" fill="none" xmlns="http://www.w3.org/2000/svg">
<g id="Group">
<path id="Vector" d="M9.57019 0.689476C8.50617 0.985708 7.69607 1.75954 7.36356 2.76915C7.25474 3.1198 7.2366 3.35557 7.20637 4.72187L7.18219 6.26954L4.87278 6.29372C2.70847 6.31791 2.54523 6.33 2.17041 6.45091C1.40262 6.70482 0.695288 7.30333 0.350691 7.98648C-0.0120439 8.69986 4.72311e-05 8.50036 4.72311e-05 14.7998C4.72311e-05 21.1719 -0.0120439 20.9724 0.380919 21.722C0.622742 22.1754 1.19103 22.7437 1.63235 22.9674C2.28527 23.2939 2.54523 23.3302 4.4375 23.3302H6.16653V25.9116C6.16653 28.2573 6.17863 28.5173 6.27536 28.7107C6.40231 28.9707 6.626 29.0614 6.87387 28.9586C6.98269 28.9163 8.05275 27.7857 9.57624 26.1111L12.0972 23.3362L16.6435 23.312C20.9842 23.2939 21.2019 23.2878 21.5223 23.173C22.5924 22.7861 23.3178 22.0606 23.602 21.0812C23.6564 20.8938 23.6987 20.6459 23.6987 20.5311C23.6987 20.4101 23.7229 20.3013 23.7471 20.2832C23.7773 20.265 24.3516 20.8696 25.0348 21.6193C25.7119 22.3689 26.3588 23.0581 26.4676 23.1548C26.7154 23.3785 26.9754 23.3846 27.1749 23.179L27.3261 23.0339V20.3376V17.6473H27.8278C29.2969 17.6473 30.5302 16.68 30.8627 15.2774C31.0018 14.691 30.9957 3.53694 30.8567 2.99888C30.5846 1.94091 29.841 1.14289 28.8072 0.79225L28.384 0.653202L19.1343 0.622974C11.0816 0.598791 9.84225 0.610882 9.57019 0.689476ZM28.5412 1.77768C29.17 1.99532 29.7261 2.6301 29.8652 3.28303C29.9075 3.49462 29.9256 5.43525 29.9136 9.33465L29.8954 15.0779L29.7382 15.4165C29.5327 15.8518 29.1579 16.2266 28.7226 16.4261C28.4203 16.5712 28.2933 16.5893 27.4953 16.6196C26.2137 16.6619 26.3346 16.3959 26.2983 19.1829L26.2681 21.4439L25.0287 20.0776L23.7894 18.7113L23.7592 13.754C23.7229 8.90541 23.7229 8.7845 23.5959 8.45804C23.5294 8.27063 23.4085 7.99858 23.336 7.85348C23.1425 7.47865 22.4654 6.82573 22.0664 6.63227C21.3288 6.26954 21.5948 6.28163 14.6485 6.28163H8.28249V4.77024C8.28249 3.40394 8.29458 3.23466 8.4034 2.93238C8.62708 2.33992 9.18328 1.85627 9.8362 1.68699C9.98129 1.65072 13.397 1.63863 19.1706 1.65677C27.0963 1.68095 28.3054 1.69909 28.5412 1.77768ZM21.1898 7.39402C21.8064 7.55725 22.3264 8.01671 22.544 8.60313C22.671 8.94773 22.671 8.95378 22.6589 14.8845L22.6407 20.8212L22.4896 21.1175C22.2901 21.5104 21.9576 21.8369 21.5707 22.0364C21.2865 22.1875 21.1596 22.2057 20.3736 22.248C19.89 22.2722 17.7559 22.2964 15.6218 22.2964L11.7466 22.3024L11.5592 22.4354C11.4564 22.514 10.4408 23.6083 9.29814 24.8657L7.22451 27.163L7.19428 24.8355C7.17615 23.5599 7.15196 22.508 7.14592 22.5019C6.99478 22.3508 6.73482 22.3326 4.7156 22.3024L2.56942 22.2722L2.22482 22.1089C1.80163 21.9155 1.42076 21.5286 1.21521 21.0933L1.05802 20.7608V14.8361V8.91146L1.21521 8.5729C1.43285 8.11344 1.75931 7.76884 2.16436 7.56934C2.49687 7.40611 2.54523 7.40006 3.7483 7.36983C4.43145 7.34565 8.56663 7.32752 12.9376 7.32147C19.4245 7.31542 20.9419 7.32752 21.1898 7.39402Z" fill="#FF8585"/>
<path id="Vector_2" d="M4.98163 11.4805C4.64912 11.6135 4.55844 12.0548 4.80631 12.2966L4.9514 12.4478H8.5062C11.3295 12.4417 12.0852 12.4296 12.1638 12.3631C12.3391 12.2362 12.4116 11.9702 12.327 11.7706C12.1819 11.414 12.2303 11.42 8.51225 11.4261C6.63812 11.4261 5.04813 11.4502 4.98163 11.4805Z" fill="#FF8585"/>
<path id="Vector_3" d="M5.03605 14.5458C4.85469 14.5821 4.65518 14.842 4.65518 15.0536C4.65518 15.1443 4.72168 15.3015 4.80028 15.3922L4.94537 15.5614L11.6983 15.5796C16.3896 15.5917 18.5237 15.5735 18.687 15.5312C18.8804 15.4768 18.953 15.4224 19.0195 15.2531C19.092 15.0778 19.092 15.0173 19.0195 14.842C18.953 14.6788 18.8804 14.6183 18.6991 14.57C18.4754 14.5035 5.35042 14.4853 5.03605 14.5458Z" fill="#FF8585"/>
<path id="Vector_4" d="M4.80629 17.7981C4.61283 17.9855 4.61283 18.2515 4.80024 18.4752L4.94534 18.6445L11.7103 18.6626C16.5347 18.6747 18.5358 18.6626 18.699 18.6143C18.8743 18.5599 18.9529 18.4994 19.0194 18.3422C19.1101 18.1125 19.0859 17.9855 18.9046 17.78L18.7837 17.647H11.8675H4.95138L4.80629 17.7981Z" fill="#FF8585"/>
</g>
</svg>
