<svg width="28" height="28" viewBox="0 0 28 28" fill="none" xmlns="http://www.w3.org/2000/svg">
<g id="Group">
<path id="Vector" d="M8.26236 0.421204C8.15964 0.475271 8.01906 0.599626 7.95418 0.702354C7.83523 0.880777 7.82982 0.929437 7.82982 2.00538C7.82982 3.08132 7.83523 3.12998 7.95418 3.3084C8.28399 3.80582 8.9328 3.79501 9.31127 3.28677C9.4194 3.14079 9.42481 3.0651 9.42481 2.00538C9.42481 0.951064 9.4194 0.869963 9.31127 0.729388C9.04093 0.36173 8.6138 0.237375 8.26236 0.421204Z" fill="#FF8585"/>
<path id="Vector_2" d="M19.7517 0.409557C19.1353 0.506879 18.6812 0.631233 18.1567 0.85291C17.0862 1.30167 16.3454 1.86397 15.037 3.21025C14.2152 4.0537 14.2152 4.0591 13.9719 4.0591C13.0636 4.0591 11.674 4.57815 10.6792 5.29184C9.06257 6.44347 7.91094 8.40071 7.79199 10.1957C7.75414 10.7472 7.80821 10.9148 8.10017 11.1636L8.27319 11.3041H10.3277H12.3823L12.5932 11.0987C12.7283 10.9581 12.8203 10.8067 12.8635 10.6283L12.9284 10.3688L13.0527 10.7418C13.4258 11.8556 14.1449 12.8775 15.1073 13.6777C15.967 14.3914 16.8104 14.8347 17.8593 15.1267C18.3676 15.2673 18.4649 15.2781 19.4813 15.2781C20.3248 15.2781 20.6654 15.2564 21.0223 15.1808C21.9739 14.9753 22.8011 14.5806 23.7094 13.9102C24.3096 13.4614 25.8721 11.9043 26.2992 11.3258C26.8886 10.531 27.3265 9.55234 27.5428 8.53588C27.678 7.90329 27.6834 6.52457 27.5482 5.89739C27.0724 3.68604 25.7423 1.9721 23.7527 1.0043C22.5632 0.425777 21.0439 0.204102 19.7517 0.409557ZM21.9522 2.08024C23.8986 2.57225 25.4288 4.10236 25.9208 6.04878C26.0235 6.44888 26.0505 6.703 26.0505 7.22204C26.0505 8.28176 25.7748 9.16847 25.1584 10.1146C24.8665 10.558 23.2552 12.2341 22.7362 12.6396C22.2983 12.9802 21.617 13.3262 21.0493 13.4993C20.6005 13.6398 20.487 13.6506 19.6435 13.6506C18.8488 13.6561 18.6649 13.6398 18.2648 13.5317C16.3941 13.0235 14.9397 11.6177 14.4855 9.88756C14.3017 9.17928 14.3017 9.15765 14.4801 9.11981C14.6856 9.08196 15.1235 9.16306 15.4371 9.30364C15.6047 9.37933 15.9562 9.68211 16.5563 10.2714C17.8918 11.5853 18.3405 11.8178 19.5624 11.8178C20.314 11.8178 20.5519 11.7583 21.2115 11.4177C21.5035 11.2663 21.7684 11.05 22.3956 10.439C22.8335 10.0065 23.3093 9.5145 23.4445 9.33608C24.2987 8.22769 24.4447 6.95171 23.8446 5.73519C23.5797 5.18911 22.8876 4.48623 22.3469 4.21049C21.7035 3.88609 21.4386 3.8158 20.779 3.8158C20.314 3.8158 20.1031 3.84283 19.8058 3.93475C19.357 4.07532 18.8542 4.36729 18.4541 4.72413L18.1675 4.97284L17.6917 4.73494C17.4268 4.60518 17.0537 4.44839 16.8591 4.38351C16.6644 4.32403 16.4752 4.25915 16.4319 4.24293C16.3779 4.22671 16.486 4.08073 16.7834 3.77795C17.7025 2.84259 18.6812 2.26947 19.7787 2.02617C19.9409 1.99373 20.3843 1.96129 20.7573 1.95588C21.3142 1.95048 21.5359 1.9721 21.9522 2.08024ZM21.5251 5.59461C21.8765 5.76222 22.282 6.17854 22.4442 6.53539C22.5307 6.73003 22.5632 6.89223 22.5632 7.22204C22.5632 7.59511 22.5416 7.69783 22.4064 7.96276C22.3199 8.13578 22.1901 8.32502 22.1198 8.3953L21.9901 8.51425L20.7249 7.24908L19.4597 5.97849L19.703 5.79466C20.2491 5.38375 20.9412 5.30806 21.5251 5.59461ZM15.2641 5.68653C16.1508 5.79466 17.0591 6.15692 17.7782 6.68678C17.9729 6.82735 18.746 7.55185 19.4976 8.29258L20.8601 9.64426L20.7411 9.77943C20.6708 9.84972 20.4978 9.97407 20.3464 10.0498C20.1085 10.1795 20.0166 10.1957 19.5624 10.1957C18.8217 10.1957 18.7082 10.1255 17.562 9.00626C16.805 8.27095 16.5401 8.04387 16.2319 7.88166C15.7399 7.62755 15.2803 7.51941 14.6694 7.51941C13.6745 7.51941 12.923 7.8276 12.2309 8.51425C11.9227 8.82784 11.7443 9.06033 11.6145 9.31445L11.4361 9.68211H10.4737H9.51133L9.59243 9.39555C9.91143 8.28717 10.7495 7.16798 11.7497 6.51376C12.8419 5.80548 13.9935 5.52973 15.2641 5.68653Z" fill="#FF8585"/>
<path id="Vector_3" d="M2.76364 2.70847C2.52575 2.81119 2.34192 3.04368 2.28785 3.31402C2.21216 3.64383 2.34732 3.83307 3.36379 4.86035C3.90446 5.40643 4.42351 5.90385 4.52083 5.96332C4.66141 6.04983 4.76414 6.06605 4.99662 6.04983C5.25074 6.0282 5.32644 5.99576 5.48864 5.82815C5.65625 5.66595 5.68869 5.59026 5.71031 5.33614C5.72653 5.10365 5.71031 5.00092 5.62381 4.86035C5.42916 4.55216 3.60169 2.77335 3.38542 2.68143C3.12589 2.5787 3.03939 2.5787 2.76364 2.70847Z" fill="#FF8585"/>
<path id="Vector_4" d="M0.363123 8.29328C-0.12889 8.6231 -0.118076 9.2719 0.390157 9.65037C0.530732 9.75851 0.611833 9.76392 1.66615 9.76392C2.72046 9.76392 2.80156 9.75851 2.94214 9.65037C3.45037 9.2719 3.46118 8.6231 2.96917 8.29328C2.79075 8.17434 2.74209 8.16893 1.66615 8.16893C0.590206 8.16893 0.541545 8.17434 0.363123 8.29328Z" fill="#FF8585"/>
<path id="Vector_5" d="M7.69464 13.0452C6.24023 13.1209 5.18591 13.5156 3.95318 14.4347C3.34762 14.8835 1.78508 16.4406 1.35795 17.0137C0.119804 18.6898 -0.296515 20.8255 0.211718 22.8422C1.01191 25.9835 3.9694 28.1624 7.20803 27.9894C8.53268 27.9191 9.64647 27.5515 10.7657 26.8107C11.1333 26.562 11.5442 26.1944 12.3552 25.3888L13.4474 24.2966L13.8691 24.2642C14.1016 24.2425 14.4855 24.1777 14.7234 24.1182C17.2916 23.4423 19.357 21.2256 19.8057 18.6628C19.9571 17.7977 19.903 17.4679 19.5624 17.1759L19.3894 17.0354H17.3403H15.2911L15.0802 17.2246C14.9234 17.3706 14.8532 17.4895 14.8045 17.695L14.7342 17.9707L14.5612 17.4787C13.9016 15.6296 12.2795 14.0617 10.3169 13.3696C9.46264 13.0722 8.77598 12.9857 7.69464 13.0452ZM9.42479 14.8132C10.0141 14.9754 10.9657 15.4512 11.4253 15.8134C12.1282 16.3757 12.7067 17.1543 13.0203 17.9653C13.1771 18.3708 13.3609 19.144 13.3122 19.1927C13.2419 19.2629 12.6364 19.1981 12.3444 19.0845C12.0633 18.9818 11.9119 18.852 11.1009 18.0681C10.106 17.0894 9.82489 16.884 9.22474 16.6677C8.7057 16.4893 7.86225 16.446 7.32157 16.5704C6.60788 16.738 6.15913 17.03 5.26701 17.9004C4.82366 18.333 4.34246 18.8412 4.19648 19.0359C3.35844 20.1388 3.22327 21.3932 3.81801 22.6043C4.08294 23.1504 4.775 23.8533 5.31567 24.129C5.95908 24.4534 6.22401 24.5237 6.88363 24.5237C7.34861 24.5237 7.55947 24.4967 7.85684 24.4047C8.3056 24.2642 8.80842 23.9668 9.20852 23.6154L9.50049 23.3612L9.97628 23.5991C10.2358 23.7289 10.6089 23.8857 10.8035 23.9506C10.9982 24.0155 11.1874 24.0803 11.2306 24.0966C11.2847 24.1128 11.1658 24.2696 10.8522 24.5832C9.61403 25.8375 8.39211 26.389 6.862 26.389C4.49385 26.389 2.34738 24.6697 1.74182 22.2907C1.50933 21.377 1.57422 20.274 1.90943 19.3819C2.26087 18.4411 2.6826 17.8734 3.92074 16.6515C5.19673 15.3863 5.8185 15.0024 7.0188 14.7375C7.54325 14.6186 8.85709 14.6618 9.42479 14.8132ZM8.88412 18.2789C9.07335 18.3708 9.44101 18.6844 10.1006 19.3332C11.1333 20.3389 11.4794 20.5768 12.1606 20.739C12.604 20.8417 13.3825 20.8417 13.8313 20.7336C14.7288 20.5227 15.6696 19.7982 16.048 19.0196L16.2265 18.6574H17.1889H18.1513L18.0702 18.9385C18.0269 19.0953 17.8917 19.4305 17.7728 19.6793C16.5076 22.361 13.3014 23.4586 10.6413 22.1177C9.98709 21.7879 9.61403 21.4743 8.16502 20.0469L6.80253 18.6952L6.92147 18.5601C7.04583 18.4303 7.36483 18.2465 7.61354 18.1654C7.87847 18.0789 8.59216 18.1437 8.88412 18.2789ZM6.94851 21.1012L8.20287 22.361L7.92713 22.5665C7.1864 23.1125 6.22941 23.0152 5.59142 22.334C5.21835 21.9339 5.09941 21.6419 5.09941 21.1174C5.09941 20.793 5.13185 20.6254 5.21295 20.4416C5.32649 20.1983 5.59142 19.8469 5.6563 19.8469C5.67793 19.8469 6.26185 20.4146 6.94851 21.1012Z" fill="#FF8585"/>
<path id="Vector_6" d="M24.9259 18.598C24.7205 18.6521 24.5096 18.8305 24.3961 19.0468C24.2285 19.3712 24.3636 19.8254 24.6934 20.047C24.8719 20.166 24.9205 20.1714 25.9965 20.1714C27.0724 20.1714 27.1211 20.166 27.2995 20.047C27.7915 19.7172 27.7807 19.0684 27.2724 18.6899C27.1373 18.5872 27.04 18.5764 26.1154 18.5656C25.5585 18.5602 25.0232 18.5764 24.9259 18.598Z" fill="#FF8585"/>
<path id="Vector_7" d="M22.3956 22.3339C22.3361 22.3555 22.2118 22.4637 22.1144 22.5718C21.9685 22.7394 21.9414 22.8097 21.9414 23.0584C21.9414 23.4369 22.0171 23.5342 23.1904 24.6913C24.2285 25.7131 24.3853 25.8159 24.7691 25.6915C25.0557 25.5942 25.2179 25.4428 25.326 25.1725C25.4936 24.7345 25.418 24.6047 24.3528 23.5288C23.2228 22.3772 23.0931 22.2799 22.7578 22.2853C22.6227 22.2853 22.4605 22.3069 22.3956 22.3339Z" fill="#FF8585"/>
<path id="Vector_8" d="M18.6433 24.7781C18.2432 25.0539 18.2378 25.0809 18.2378 26.3353C18.2378 27.3896 18.2432 27.4707 18.3513 27.6113C18.7298 28.1195 19.3786 28.1303 19.7084 27.6383C19.8274 27.4599 19.8328 27.4112 19.8328 26.3353C19.8328 25.2593 19.8274 25.2107 19.7084 25.0322C19.4705 24.67 18.9785 24.5565 18.6433 24.7781Z" fill="#FF8585"/>
</g>
</svg>
