<svg width="34" height="36" viewBox="0 0 34 36" fill="none" xmlns="http://www.w3.org/2000/svg">
<g id="Group">
<path id="Vector" d="M17.175 0.16072C16.9519 0.258325 16.6522 0.509308 16.3524 0.830009C14.4282 2.86576 13.473 5.18736 13.724 7.2022C13.8634 8.35951 14.3584 9.57957 15.1532 10.7648C15.6761 11.5386 16.6103 12.5914 16.9729 12.8145L17.2726 12.9957L17.2796 14.3622C17.2796 15.6938 17.2866 15.7287 17.44 15.8751C17.67 16.0912 18.0465 16.0772 18.2626 15.8472C18.423 15.6729 18.4299 15.6311 18.4648 14.3204L18.4997 12.9678L18.7925 12.7587C19.1968 12.4659 20.0683 11.448 20.5982 10.6532C21.3372 9.54471 21.7346 8.56169 21.9298 7.36952C22.0274 6.77692 22.0343 6.55382 21.9646 5.96122C21.7694 4.19737 20.8143 2.3638 19.3014 0.830009C18.7995 0.314098 18.5694 0.139805 18.3533 0.0770588C17.921 -0.0484333 17.5585 -0.020546 17.175 0.16072ZM18.2208 1.39472C18.5764 1.70845 19.3014 2.59386 19.6849 3.18646C20.9677 5.17341 21.135 7.04882 20.2147 8.94514C19.887 9.61442 19.4269 10.3116 18.8901 10.953L18.4997 11.4201L18.4648 7.70416C18.423 3.60477 18.4369 3.68146 17.9838 3.58385C17.7537 3.53505 17.3912 3.68843 17.3214 3.86272C17.3005 3.92547 17.2796 5.65447 17.2796 7.70416C17.2796 9.75386 17.2587 11.4271 17.2308 11.4201C17.1959 11.4201 17.0147 11.2249 16.8195 10.9879C14.4282 8.10155 14.2678 5.57778 16.2826 2.76816C16.8404 1.99429 17.6282 1.1786 17.8164 1.1786C17.9001 1.1786 18.0814 1.2762 18.2208 1.39472Z" fill="#FF8585"/>
<path id="Vector_2" d="M3.97082 5.29878C3.26667 5.40336 2.81351 5.70315 2.54161 6.24694C2.33943 6.65131 2.33943 7.01384 2.52767 7.94805C2.95991 10.0884 3.74772 11.6501 4.98172 12.8143C5.98566 13.7695 7.49156 14.39 9.21358 14.5712C10.1129 14.6688 11.821 14.5643 12.3857 14.383L12.7483 14.2645L13.8359 15.1499C14.8049 15.9307 14.9583 16.0283 15.1953 16.0283C15.5091 16.0283 15.7461 15.7773 15.7461 15.4427C15.7461 15.1778 15.5927 15.0174 14.3378 14.0135L13.4454 13.3024V12.8492C13.4454 11.5664 12.6995 9.34938 11.821 8.04566C11.1866 7.0975 10.0153 6.16328 8.98351 5.77286C7.92381 5.3685 7.35212 5.27787 5.84622 5.24998C5.05841 5.24301 4.21483 5.26393 3.97082 5.29878ZM7.7286 6.60948C8.42577 6.81166 9.56914 7.38334 9.98047 7.7389C10.6498 8.31756 11.3748 9.4679 11.7443 10.5276C11.9326 11.0923 12.2114 12.1939 12.1766 12.2357C12.1487 12.2566 11.2563 11.5525 7.73557 8.70797C6.50854 7.72496 6.27847 7.56461 6.06932 7.56461C5.65101 7.56461 5.36517 8.05263 5.56038 8.42213C5.60221 8.49185 6.94776 9.60733 8.55824 10.9041C10.1757 12.2008 11.4933 13.2884 11.4933 13.3233C11.4933 13.386 10.6916 13.4209 9.78526 13.393C8.54429 13.3512 7.31726 13.0235 6.50157 12.5076C5.09327 11.6222 4.11723 9.94895 3.68498 7.66221C3.44097 6.42124 3.46188 6.40729 5.84622 6.44215C6.99656 6.4561 7.2824 6.48398 7.7286 6.60948Z" fill="#FF8585"/>
<path id="Vector_3" d="M28.2809 5.99594C27.3537 6.10749 26.4194 6.37939 25.6456 6.76981C24.3419 7.41818 23.5401 8.41514 23.1079 9.91407C22.8987 10.6391 22.7523 11.908 22.815 12.5424L22.8569 12.9956L21.8808 14.0414C21.337 14.62 20.849 15.1778 20.7932 15.2893C20.5841 15.6797 20.856 16.098 21.3161 16.098C21.5741 16.098 21.6298 16.0562 22.585 15.0313L23.5819 13.9716L24.1118 13.9926C24.3976 14.0065 24.9345 13.9716 25.297 13.9089C27.4094 13.5673 28.9153 12.5843 29.6404 11.0784C30.1354 10.0605 30.2748 9.39816 30.2748 8.00381C30.2818 6.86044 30.2818 6.8465 30.0866 6.56066C29.745 6.04475 29.236 5.8844 28.2809 5.99594ZM29.0548 7.1672C29.2012 7.25783 29.1175 8.92408 28.9293 9.6352C28.4761 11.3642 27.3327 12.3124 25.2203 12.7167C24.9554 12.7655 24.7393 12.7864 24.7393 12.7585C24.7393 12.7376 25.1227 12.3054 25.5828 11.8104C27.6813 9.55851 27.8068 9.41908 27.8068 9.2169C27.8068 8.82648 27.4303 8.51972 27.0748 8.61035C26.9772 8.63824 26.3428 9.25176 25.5619 10.0953C24.8299 10.8831 24.1815 11.5803 24.1257 11.6361C24.0351 11.7267 24.0281 11.671 24.063 11.1829C24.1327 10.179 24.6068 9.10535 25.2761 8.45C25.9105 7.82255 27.1236 7.33452 28.3994 7.18114C28.6713 7.14628 28.9014 7.1184 28.9223 7.11143C28.9432 7.11143 28.999 7.13234 29.0548 7.1672Z" fill="#FF8585"/>
<path id="Vector_4" d="M30.2333 17.2973C30.0102 17.3251 29.6686 17.4297 29.4664 17.5273C29.2433 17.6319 27.9396 18.6707 26.1408 20.1766L23.1848 22.6446L22.885 22.3099C22.5434 21.9265 21.9369 21.5849 21.407 21.4733C21.163 21.4245 19.7687 21.3966 17.2937 21.3966H13.5499L12.8666 20.9505C11.9115 20.323 11.1237 20.072 9.98728 20.0162C7.42168 19.9047 4.73755 20.7413 2.66694 22.289C1.70483 23.0141 0.624212 24.1296 0.359285 24.6734C0.0804148 25.2451 -0.0381051 25.8795 0.0106972 26.4372C0.0525278 26.9113 2.29743 34.4199 2.4787 34.7127C3.12707 35.7445 4.5284 35.9885 5.41381 35.2356C5.57416 35.0962 6.17373 34.3571 6.75239 33.5972C7.83301 32.161 8.02125 31.9658 8.60687 31.7009L8.94849 31.5406L15.6414 31.5057L22.3343 31.4708L22.7247 31.3105C22.9408 31.2268 23.2615 31.0525 23.4428 30.927C23.889 30.5994 32.5758 21.794 32.8616 21.3618C33.5588 20.323 33.4263 19.0262 32.5409 18.0851C31.9413 17.4506 31.1396 17.1787 30.2333 17.2973ZM31.286 18.6079C31.8368 18.8868 32.2132 19.6119 32.0947 20.1557C31.9762 20.6995 32.276 20.3788 25.7644 26.9531C23.5613 29.1771 22.6968 30.0068 22.4528 30.1253L22.1251 30.2856L15.3625 30.3205L8.5999 30.3554L8.14674 30.5715C7.39379 30.927 6.91971 31.3872 5.88092 32.7746C5.35106 33.4787 4.84212 34.134 4.74452 34.2386C4.44474 34.5663 3.88699 34.5663 3.58721 34.2317C3.53143 34.1689 2.97369 32.4399 2.35321 30.3902C1.36322 27.1344 1.21681 26.5976 1.21681 26.1723C1.20984 25.4542 1.43991 25.008 2.17891 24.2899C3.90094 22.6028 5.86697 21.6267 8.1816 21.2921C10.0221 21.0271 11.3816 21.2851 12.4344 22.0938C13.0479 22.5679 12.8108 22.547 17.2449 22.5818L21.2885 22.6167L21.6162 22.8119C22.2506 23.1814 22.5225 23.9901 22.2367 24.6385C22.0345 25.0917 21.916 25.2172 21.4977 25.4124L21.1491 25.5797H17.1194H13.0897L12.9224 25.754C12.6854 25.9841 12.6854 26.3605 12.9224 26.5976L13.0967 26.7719L17.3285 26.751L21.5674 26.73L21.9926 26.5348C22.8432 26.1374 23.4428 25.3008 23.5752 24.3318L23.645 23.8019L26.7056 21.2572C28.3857 19.8559 29.8638 18.6567 29.9823 18.587C30.296 18.4197 30.9444 18.4267 31.286 18.6079Z" fill="#FF8585"/>
</g>
</svg>
