<svg width="94" height="29" viewBox="0 0 94 29" fill="none" xmlns="http://www.w3.org/2000/svg">
<path d="M6.04 0.0399976C6.86667 0.0399976 7.62667 0.186665 8.32 0.479999C9.01333 0.773332 9.6 1.2 10.08 1.76C10.5867 2.29333 10.9733 2.93333 11.24 3.68C11.5333 4.42666 11.68 5.25333 11.68 6.16V8.4C11.68 10.2133 11.16 11.6933 10.12 12.84C9.10667 13.9867 7.76 14.56 6.08 14.56H2.72V28H0.16V0.0399976H6.04ZM9.12 5.32C9.12 3.56 8.86667 2.28 8.36 1.48C7.85333 0.679999 7 0.279999 5.8 0.279999H2.72V14.32H5.88C7.05333 14.32 7.88 13.92 8.36 13.12C8.86667 12.2933 9.12 11 9.12 9.24V5.32ZM17.0559 0.0399976V23.16C17.0559 24.6 17.3893 25.76 18.0559 26.64C18.7226 27.4933 19.6426 27.92 20.8159 27.92C22.0959 27.92 23.1493 27.3867 23.9759 26.32C24.8026 25.2533 25.2159 23.8267 25.2159 22.04V0.0399976H25.4559V22C25.4559 23.9733 24.9893 25.52 24.0559 26.64C23.1226 27.76 21.8426 28.32 20.2159 28.32C18.4826 28.32 17.0959 27.7067 16.0559 26.48C15.0159 25.2267 14.4959 23.5867 14.4959 21.56V0.0399976H17.0559ZM35.1025 0.0399976C35.9292 0.0399976 36.6892 0.186665 37.3825 0.479999C38.0758 0.773332 38.6625 1.2 39.1425 1.76C39.6492 2.29333 40.0358 2.93333 40.3025 3.68C40.5958 4.42666 40.7425 5.25333 40.7425 6.16V8C40.7425 9.68 40.2892 11.08 39.3825 12.2C38.4758 13.32 37.2758 13.96 35.7825 14.12V14.2C36.3958 14.2533 36.9558 14.5333 37.4625 15.04C37.9958 15.5467 38.3692 16.2267 38.5825 17.08L41.5025 28H38.8625L35.9025 16.76C35.6358 15.72 35.3692 15.0267 35.1025 14.68C34.8625 14.3333 34.4892 14.16 33.9825 14.16H31.7825V28H29.2225V0.0399976H35.1025ZM38.1825 5.32C38.1825 3.56 37.9292 2.28 37.4225 1.48C36.9158 0.679999 36.0625 0.279999 34.8625 0.279999H31.7825V13.92H34.9425C36.1158 13.92 36.9425 13.52 37.4225 12.72C37.9292 11.8933 38.1825 10.6 38.1825 8.84V5.32ZM53.3694 0.0399976V0.279999H47.3294V13.6H52.5294V13.84H47.3294V27.76H53.3694V28H44.7694V0.0399976H53.3694ZM71.4016 28H68.8416V1.28H68.7616L64.0416 28H63.1216L56.7616 1.28H56.6816V28H56.4416V0.0399976H59.1216L64.5216 23.16H64.6016L68.6816 0.0399976H71.4016V28ZM78.2669 0.0399976V28H75.7069V0.0399976H78.2669ZM88.0134 12.04H88.0534L92.4134 0.0399976H92.7734L88.2134 12.64L93.2934 28H90.6134L86.2134 14.64H86.1334L81.2134 28H80.8934L86.0134 14.04L81.3734 0.0399976H84.0934L88.0134 12.04Z" fill="white"/>
</svg>
