<svg width="154" height="19" viewBox="0 0 154 19" fill="none" xmlns="http://www.w3.org/2000/svg">
<g id="&#208;&#160;&#208;&#181;&#209;&#129;&#209;&#131;&#209;&#128;&#209;&#129; 5 3" clip-path="url(#clip0_148_2202)">
<g id="&#208;&#161;&#208;&#187;&#208;&#190;&#208;&#185; 2">
<g id="&#208;&#161;&#208;&#187;&#208;&#190;&#208;&#185; 1">
<g id="Clip path group">
<mask id="mask0_148_2202" style="mask-type:luminance" maskUnits="userSpaceOnUse" x="-1" y="0" width="156" height="19">
<g id="clip-path">
<path id="Vector" d="M56.0619 8.62871H56.3722C56.5569 8.5872 56.7377 8.53028 56.9128 8.45854C57.091 8.38452 57.262 8.29404 57.4234 8.18827C57.7478 7.97065 58.0266 7.69183 58.2443 7.36744C58.3539 7.20832 58.4446 7.03699 58.5146 6.85692C58.5908 6.68347 58.6479 6.50222 58.6848 6.31638C58.7046 6.12336 58.7046 5.92881 58.6848 5.73579C58.7045 5.54611 58.7045 5.35489 58.6848 5.16522C58.602 4.80688 58.4526 4.46731 58.2443 4.1642C58.0266 3.83981 57.7478 3.561 57.4234 3.34338C57.271 3.21002 57.1029 3.09573 56.9228 3.00303C56.7499 2.92544 56.5684 2.86833 56.3822 2.83286C56.1946 2.79309 56.0034 2.77296 55.8116 2.7728H51.5769L56.0619 8.62871ZM35.0387 1.38139C35.036 1.20286 35.0701 1.02567 35.1388 0.860869C35.208 0.692255 35.3101 0.53912 35.4391 0.410414C35.5689 0.289972 35.7177 0.191877 35.8796 0.120121C36.05 0.044528 36.2338 0.00369058 36.4202 0C36.5983 0.00223479 36.7746 0.0361299 36.9408 0.100101C37.1093 0.169539 37.2623 0.271623 37.3912 0.400472C37.5201 0.52932 37.6222 0.682388 37.6916 0.850859C37.7556 1.01706 37.7895 1.19331 37.7917 1.37138V11.3214C37.7907 11.8086 37.7438 12.2945 37.6516 12.7729C37.5538 13.2529 37.4096 13.7222 37.2211 14.1743C37.0348 14.6268 36.8034 15.0595 36.5303 15.4656C36.262 15.8753 35.9498 16.2546 35.5993 16.5968C35.2528 16.9425 34.874 17.2542 34.468 17.5277C34.0619 17.8007 33.6292 18.0321 33.1766 18.2184C32.7274 18.4055 32.2615 18.5496 31.7851 18.6488C30.823 18.8357 29.8339 18.8357 28.8719 18.6488C28.3955 18.5496 27.9295 18.4055 27.4803 18.2184C27.0278 18.0321 26.5951 17.8007 26.1889 17.5277C25.3744 16.9803 24.674 16.28 24.1266 15.4656C23.8536 15.0595 23.6222 14.6268 23.4359 14.1743C23.2562 13.7277 23.1188 13.2652 23.0254 12.7929C22.9337 12.3111 22.8868 11.8219 22.8853 11.3314V1.38139C22.8826 1.20286 22.9166 1.02567 22.9854 0.860869C23.0545 0.692255 23.1566 0.53912 23.2857 0.410414C23.4155 0.289972 23.5643 0.191877 23.7262 0.120121C23.8873 0.0483119 24.0605 0.00755793 24.2367 0C24.418 0.00329725 24.5974 0.037139 24.7673 0.100101C24.9317 0.171741 25.0811 0.273608 25.2078 0.400404C25.3369 0.52911 25.439 0.682245 25.5082 0.850859C25.5769 1.01566 25.611 1.19285 25.6083 1.37138V11.3214C25.608 11.6306 25.6381 11.9391 25.6984 12.2424C25.758 12.5445 25.8486 12.8397 25.9687 13.1232C26.0856 13.4087 26.2333 13.6806 26.4091 13.9341C26.9324 14.7108 27.6696 15.3193 28.5315 15.6858C28.8151 15.8059 29.1103 15.8965 29.4125 15.9561C30.0172 16.0761 30.6397 16.0761 31.2445 15.9561C31.5466 15.8965 31.8419 15.8059 32.1255 15.6858C32.411 15.5689 32.6829 15.4212 32.9364 15.2454C33.456 14.8994 33.9018 14.4537 34.2478 13.9341C34.4199 13.6783 34.5674 13.4068 34.6883 13.1232C34.8084 12.8397 34.899 12.5445 34.9586 12.2424C35.0188 11.9391 35.049 11.6306 35.0487 11.3214L35.0387 1.38139ZM52.6281 8.63872L47.7527 2.27229C47.7037 2.21297 47.6601 2.14931 47.6226 2.0821C47.582 2.01414 47.5452 1.94396 47.5124 1.87189C47.483 1.79446 47.4629 1.71382 47.4524 1.63165C47.4419 1.54856 47.4419 1.46448 47.4524 1.38139C47.4531 1.20218 47.4906 1.02503 47.5625 0.860869C47.6317 0.694626 47.73 0.542077 47.8528 0.410414C47.9845 0.287593 48.1371 0.189284 48.3033 0.120121C48.4578 0.0496164 48.6242 0.00886459 48.7939 0L55.8016 0C56.1713 0.00143892 56.5401 0.0383112 56.9028 0.110111C57.2666 0.180315 57.6221 0.287651 57.964 0.430435C58.314 0.574625 58.6493 0.752296 58.9651 0.96097C59.2762 1.16706 59.5647 1.40528 59.826 1.67169C60.0896 1.93556 60.3276 2.2238 60.5368 2.53256C60.7407 2.84953 60.915 3.18462 61.0574 3.53357C61.2066 3.87736 61.3174 4.23656 61.3878 4.60465C61.4596 4.96733 61.4964 5.33605 61.4979 5.70576C61.4958 6.07875 61.4589 6.45073 61.3878 6.81688C61.3199 7.17793 61.2124 7.53041 61.0674 7.86794C60.9272 8.21791 60.7528 8.5532 60.5468 8.86895C60.3352 9.17897 60.0974 9.47032 59.836 9.73983C59.6009 9.97136 59.3463 10.1823 59.0752 10.3705C58.8034 10.5622 58.5154 10.7297 58.2143 10.871L57.8939 11.0111L62.0685 16.4266C62.178 16.5703 62.2595 16.7333 62.3088 16.9071C62.339 17.0826 62.339 17.2621 62.3088 17.4376C62.2871 17.6175 62.2292 17.7912 62.1386 17.9481C61.9495 18.2604 61.649 18.4894 61.2977 18.5888C61.1221 18.619 60.9426 18.619 60.7671 18.5888C60.4052 18.5393 60.0777 18.3485 59.8561 18.0582L54.7304 11.3615H50.1754V17.3675C50.1746 17.5467 50.1372 17.7239 50.0653 17.8881C49.9255 18.2252 49.6597 18.4946 49.3244 18.6388C49.1545 18.7018 48.9751 18.7356 48.7939 18.7389C48.6081 18.7469 48.4228 18.7154 48.2502 18.6463C48.0777 18.5773 47.9217 18.4724 47.7928 18.3385C47.6637 18.2098 47.5616 18.0567 47.4924 17.8881C47.4205 17.7239 47.3831 17.5467 47.3823 17.3675V10.0101C47.3791 9.6368 47.523 9.27724 47.7827 9.0091C47.9115 8.88006 48.0646 8.77797 48.2332 8.70879C48.3978 8.63796 48.5747 8.60053 48.7538 8.59868L52.6281 8.63872ZM72.5801 18.7189C72.2068 18.7221 71.8472 18.5782 71.579 18.3185C71.45 18.1898 71.3479 18.0367 71.2787 17.868C71.2099 17.7032 71.1759 17.5261 71.1786 17.3475C71.177 17.1658 71.211 16.9856 71.2787 16.817C71.4231 16.4853 71.6878 16.2207 72.0195 16.0762C72.1881 16.0085 72.3684 15.9745 72.5501 15.9761H83.9727C84.1544 15.9745 84.3346 16.0085 84.5033 16.0762C84.6676 16.1479 84.817 16.2497 84.9438 16.3765C85.0756 16.507 85.1792 16.6632 85.2481 16.8354C85.317 17.0076 85.3497 17.1921 85.3442 17.3775C85.3469 17.5561 85.3128 17.7333 85.2441 17.8981C85.1749 18.0667 85.0728 18.2198 84.9438 18.3485C84.8183 18.4743 84.6684 18.5731 84.5033 18.6388C84.3353 18.7097 84.155 18.7471 83.9727 18.7489L72.5801 18.7189ZM72.5801 10.8409C72.3978 10.8391 72.2175 10.8017 72.0495 10.7308C71.8877 10.6591 71.7388 10.561 71.609 10.4405C71.48 10.3118 71.3779 10.1587 71.3087 9.99009C71.241 9.82496 71.207 9.648 71.2086 9.46956C71.207 9.28788 71.241 9.10764 71.3087 8.93903C71.4604 8.60184 71.7366 8.33639 72.0796 8.19828C72.2476 8.12741 72.4278 8.09001 72.6101 8.08817H83.9727C84.155 8.09001 84.3353 8.12741 84.5033 8.19828C84.6676 8.26992 84.817 8.37178 84.9438 8.49858C85.0728 8.62347 85.1749 8.77333 85.2441 8.93903C85.3118 9.10764 85.3458 9.28788 85.3442 9.46956C85.3458 9.648 85.3118 9.82496 85.2441 9.99009C85.1749 10.1587 85.0728 10.3118 84.9438 10.4405C84.814 10.561 84.6651 10.6591 84.5033 10.7308C84.3353 10.8017 84.155 10.8391 83.9727 10.8409H72.5801ZM72.5801 2.83286C72.4066 2.82114 72.2368 2.777 72.0796 2.70273C71.7437 2.57425 71.4685 2.3241 71.3087 2.00202C71.241 1.83341 71.207 1.65317 71.2086 1.47149C71.2059 1.29295 71.24 1.11576 71.3087 0.95096C71.3779 0.782346 71.48 0.629211 71.609 0.500505C71.8772 0.240766 72.2368 0.0969409 72.6101 0.100101H83.9727C84.1539 0.103398 84.3333 0.13724 84.5033 0.200202C84.6656 0.275481 84.8144 0.376936 84.9438 0.500505C85.0728 0.629211 85.1749 0.782346 85.2441 0.95096C85.3128 1.11576 85.3469 1.29295 85.3442 1.47149C85.3469 1.65002 85.3128 1.82721 85.2441 1.99201C85.1749 2.16063 85.0728 2.31376 84.9438 2.44247C84.817 2.56926 84.6676 2.67113 84.5033 2.74277C84.3346 2.81046 84.1544 2.84446 83.9727 2.84287L72.5801 2.83286ZM104.776 11.4416L102.043 5.13518L96.4865 17.9381C96.411 18.1028 96.3058 18.2521 96.1762 18.3786C96.0462 18.5036 95.8932 18.6022 95.7257 18.6688C95.5601 18.7341 95.3829 18.7648 95.2051 18.7589C95.0259 18.7582 94.8487 18.7207 94.6845 18.6488C94.5202 18.5772 94.3708 18.4753 94.244 18.3485C94.1212 18.2169 94.0229 18.0643 93.9537 17.8981C93.8868 17.7327 93.8528 17.5559 93.8536 17.3775C93.8589 17.1946 93.8997 17.0144 93.9737 16.847L100.781 1.12113C100.861 0.953919 100.973 0.804216 101.112 0.680687C101.238 0.551237 101.392 0.452003 101.562 0.390394C101.883 0.261226 102.242 0.261226 102.563 0.390394C102.645 0.420268 102.722 0.460648 102.793 0.510515L102.994 0.680687C103.055 0.74028 103.109 0.807566 103.154 0.880889C103.201 0.952058 103.244 1.02556 103.284 1.10111L106.287 7.95803L109.291 1.11112C109.361 0.943515 109.467 0.793216 109.601 0.670677C109.727 0.541227 109.881 0.441993 110.051 0.380384C110.373 0.251216 110.731 0.251216 111.053 0.380384C111.132 0.414394 111.209 0.454556 111.283 0.500505L111.483 0.670677C111.545 0.732728 111.602 0.799679 111.653 0.870879L111.773 1.0911L118.591 16.827C118.662 16.995 118.699 17.1752 118.701 17.3575C118.7 17.5349 118.67 17.7108 118.611 17.8781C118.539 18.043 118.441 18.1952 118.321 18.3285C118.194 18.4553 118.044 18.5572 117.88 18.6288C117.712 18.6997 117.532 18.7371 117.35 18.7389C117.172 18.7432 116.995 18.7126 116.829 18.6488C116.663 18.5797 116.51 18.4814 116.378 18.3585C116.252 18.2318 116.15 18.0824 116.078 17.9181L110.492 5.10515L107.759 11.4115L110.122 16.847C110.192 17.0115 110.23 17.1884 110.232 17.3675C110.232 17.5482 110.201 17.7276 110.142 17.8981C110.072 18.0667 109.97 18.2198 109.841 18.3485C109.718 18.4796 109.568 18.5821 109.401 18.6488C109.237 18.7207 109.059 18.7582 108.88 18.7589C108.702 18.7632 108.526 18.7326 108.36 18.6688C108.193 18.5997 108.041 18.5014 107.909 18.3786C107.782 18.2518 107.68 18.1024 107.609 17.9381L106.267 14.855L104.936 17.9381C104.861 18.1004 104.759 18.2492 104.635 18.3786C104.5 18.5015 104.344 18.5998 104.175 18.6688C104.009 18.7341 103.832 18.7648 103.654 18.7589C103.475 18.7582 103.298 18.7207 103.134 18.6488C102.967 18.5821 102.816 18.4796 102.693 18.3485C102.566 18.2203 102.467 18.0669 102.403 17.8981C102.335 17.7295 102.301 17.5492 102.303 17.3675C102.311 17.1891 102.348 17.0132 102.413 16.847L104.776 11.4416ZM127.381 1.43145C127.381 1.25224 127.419 1.07508 127.491 0.91092C127.56 0.742305 127.662 0.58917 127.791 0.460465C127.917 0.334647 128.066 0.235853 128.232 0.170172C128.4 0.0993044 128.58 0.0619017 128.762 0.0600606C128.94 0.0633233 129.116 0.0971843 129.283 0.160162C129.449 0.232907 129.602 0.334575 129.733 0.460465C129.856 0.592128 129.954 0.744676 130.024 0.91092C130.095 1.07508 130.133 1.25224 130.134 1.43145V17.4376C130.132 17.6199 130.094 17.8001 130.024 17.9681C129.952 18.13 129.854 18.2788 129.733 18.4086C129.604 18.5376 129.451 18.6397 129.283 18.7089C129.118 18.7797 128.941 18.8172 128.762 18.819C128.58 18.8172 128.4 18.7798 128.232 18.7089C127.9 18.5644 127.635 18.2998 127.491 17.9681C127.42 17.8001 127.382 17.6199 127.381 17.4376V1.43145ZM146.402 11.6918L141.286 18.2484C141.173 18.3909 141.034 18.5099 140.876 18.5988C140.723 18.6908 140.552 18.7488 140.375 18.7689C140.199 18.799 140.02 18.799 139.844 18.7689C139.67 18.7218 139.506 18.6401 139.364 18.5287C139.224 18.4137 139.105 18.2748 139.013 18.1183C138.843 17.8136 138.797 17.4553 138.883 17.1173C138.933 16.9466 139.014 16.787 139.124 16.6468L144.67 9.54964L139.154 2.31233C138.933 2.02788 138.833 1.66876 138.873 1.31132C138.897 1.13176 138.954 0.95839 139.043 0.800809C139.135 0.647292 139.254 0.511637 139.394 0.400404C139.678 0.180207 140.038 0.079652 140.395 0.120121C140.57 0.142829 140.74 0.197093 140.896 0.280283C141.056 0.369768 141.196 0.492637 141.306 0.640647L146.422 7.18726L151.537 0.630637C151.643 0.482869 151.78 0.359899 151.938 0.270273C152.097 0.187149 152.27 0.132924 152.448 0.110111C152.623 0.0750561 152.804 0.0750561 152.979 0.110111C153.152 0.161453 153.315 0.242769 153.459 0.350354C153.599 0.461586 153.718 0.597241 153.81 0.750758C153.893 0.910133 153.947 1.08298 153.97 1.26127C154.01 1.43583 154.01 1.61725 153.97 1.79181C153.927 1.96793 153.845 2.13213 153.73 2.27229L148.164 9.4095L153.7 16.5067C153.813 16.6444 153.895 16.8049 153.94 16.9771C153.979 17.1518 153.979 17.333 153.94 17.5077C153.917 17.686 153.863 17.8588 153.78 18.0182C153.691 18.1765 153.572 18.316 153.429 18.4286C153.284 18.5362 153.122 18.6175 152.949 18.6688C152.688 18.7411 152.412 18.734 152.155 18.6484C151.898 18.5628 151.673 18.4027 151.507 18.1884L146.402 11.6918ZM2.74302 11.3915V17.3976C2.74572 17.5761 2.71164 17.7533 2.64291 17.9181C2.57373 18.0867 2.47163 18.2398 2.34258 18.3685C2.07441 18.6283 1.71482 18.7721 1.34148 18.7689C1.16292 18.7716 0.98572 18.7376 0.820901 18.6688C0.652271 18.5997 0.499121 18.4976 0.370404 18.3685C0.244314 18.2394 0.14557 18.0862 0.0800835 17.9181C0.0223624 17.7612 -0.00482183 17.5947 -4.89305e-06 17.4276V10.0101C0.00184295 9.83102 0.0392755 9.65408 0.110117 9.48958C0.167924 9.3089 0.267368 9.14431 0.400437 9.0091C0.529155 8.88006 0.682304 8.77797 0.850934 8.70879C1.01511 8.63691 1.19228 8.59943 1.37151 8.59868H8.37924C8.58938 8.61338 8.80038 8.61003 9.00994 8.58867C9.19458 8.54716 9.37541 8.49024 9.55054 8.4185C9.71152 8.3418 9.86559 8.25138 10.011 8.14823C10.1723 8.0389 10.3231 7.91492 10.4615 7.77785C10.5958 7.6369 10.7196 7.48635 10.832 7.3274C10.9377 7.166 11.0282 6.99509 11.1023 6.81688C11.174 6.64178 11.2309 6.46096 11.2724 6.27634C11.3044 6.08443 11.3212 5.8903 11.3225 5.69575C11.3207 5.50454 11.304 5.31377 11.2724 5.12517C11.2309 4.93729 11.174 4.75315 11.1023 4.57462C11.026 4.40066 10.9356 4.23326 10.832 4.07411C10.7196 3.91516 10.5958 3.76461 10.4615 3.62366C10.3231 3.48659 10.1723 3.36261 10.011 3.25328C9.85096 3.15067 9.67966 3.0667 9.50048 3.00303C9.34381 2.92323 9.17946 2.85951 9.00994 2.81284C8.81903 2.77252 8.62442 2.75239 8.4293 2.75278H1.42156C1.24301 2.75548 1.06581 2.7214 0.90099 2.65268C0.732359 2.5835 0.57921 2.48141 0.450492 2.35238C0.190729 2.08423 0.0468899 1.72467 0.0500504 1.35136C0.0388039 1.18554 0.0591878 1.01908 0.110117 0.860869C0.175603 0.69272 0.274347 0.539511 0.400437 0.410414C0.532112 0.287593 0.684676 0.189284 0.850934 0.120121C1.01438 0.0447888 1.19158 0.00390001 1.37151 0L8.37924 0C8.75262 0.00470774 9.12471 0.0449294 9.49047 0.120121C9.85386 0.191772 10.2093 0.299065 10.5516 0.440445C10.9019 0.584118 11.2372 0.761815 11.5527 0.97098C12.1708 1.38798 12.7014 1.92187 13.1145 2.54257C13.3184 2.85954 13.4926 3.19463 13.635 3.54358C13.7912 3.88259 13.9185 4.2342 14.0155 4.59464C14.0873 4.95732 14.1241 5.32604 14.1256 5.69575C14.1235 6.06874 14.0866 6.44072 14.0155 6.80687C13.9358 7.16932 13.8252 7.5243 13.6851 7.86794C13.5427 8.21689 13.3684 8.55198 13.1645 8.86895C12.9528 9.17897 12.7151 9.47032 12.4537 9.73983C12.1842 10.0011 11.8928 10.2389 11.5828 10.4506C11.267 10.6565 10.9317 10.8309 10.5817 10.9711C10.238 11.1112 9.88299 11.2217 9.5205 11.3014C9.15442 11.3732 8.78234 11.4101 8.40928 11.4115L2.74302 11.3915Z" fill="white"/>
</g>
</mask>
<g mask="url(#mask0_148_2202)">
<g id="Group">
<path id="Vector_2" d="M154 0H0V18.819H154V0Z" fill="white"/>
</g>
</g>
</g>
</g>
</g>
</g>
<defs>
<clipPath id="clip0_148_2202">
<rect width="154" height="18.819" fill="white"/>
</clipPath>
</defs>
</svg>
