<svg width="154" height="19" viewBox="0 0 154 19" fill="none" xmlns="http://www.w3.org/2000/svg">
<g id="&#208;&#160;&#208;&#181;&#209;&#129;&#209;&#131;&#209;&#128;&#209;&#129; 5 3" clip-path="url(#clip0_148_2232)">
<g id="&#208;&#161;&#208;&#187;&#208;&#190;&#208;&#185; 2">
<g id="&#208;&#161;&#208;&#187;&#208;&#190;&#208;&#185; 1">
<g id="Clip path group">
<mask id="mask0_148_2232" style="mask-type:luminance" maskUnits="userSpaceOnUse" x="-1" y="0" width="156" height="19">
<g id="clip-path">
<path id="Vector" d="M56.0619 8.62871H56.3723C56.5569 8.5872 56.7378 8.53028 56.9129 8.45854C57.0911 8.38452 57.262 8.29404 57.4234 8.18827C57.7479 7.97065 58.0267 7.69183 58.2444 7.36744C58.3539 7.20832 58.4446 7.03699 58.5146 6.85692C58.5909 6.68347 58.648 6.50222 58.6848 6.31638C58.7047 6.12336 58.7047 5.92881 58.6848 5.73579C58.7046 5.54611 58.7046 5.35489 58.6848 5.16522C58.6021 4.80688 58.4526 4.46731 58.2444 4.1642C58.0267 3.83981 57.7479 3.561 57.4234 3.34338C57.271 3.21002 57.103 3.09573 56.9229 3.00303C56.7499 2.92544 56.5685 2.86833 56.3823 2.83286C56.1947 2.79309 56.0034 2.77296 55.8117 2.7728H51.577L56.0619 8.62871ZM35.0387 1.38139C35.036 1.20286 35.0701 1.02567 35.1388 0.860869C35.208 0.692255 35.3101 0.53912 35.4392 0.410414C35.569 0.289972 35.7178 0.191877 35.8797 0.120121C36.0501 0.044528 36.2339 0.00369058 36.4203 0C36.5984 0.00223479 36.7746 0.0361299 36.9408 0.100101C37.1093 0.169539 37.2624 0.271623 37.3913 0.400472C37.5201 0.52932 37.6222 0.682388 37.6917 0.850859C37.7556 1.01706 37.7895 1.19331 37.7918 1.37138V11.3214C37.7907 11.8086 37.7438 12.2945 37.6516 12.7729C37.5538 13.2529 37.4097 13.7222 37.2211 14.1743C37.0348 14.6268 36.8034 15.0595 36.5304 15.4656C36.262 15.8753 35.9498 16.2546 35.5994 16.5968C35.2529 16.9425 34.8741 17.2542 34.4681 17.5277C34.0619 17.8007 33.6293 18.0321 33.1767 18.2184C32.7275 18.4055 32.2615 18.5496 31.7851 18.6488C30.8231 18.8357 29.834 18.8357 28.8719 18.6488C28.3955 18.5496 27.9296 18.4055 27.4804 18.2184C27.0278 18.0321 26.5952 17.8007 26.189 17.5277C25.3745 16.9803 24.6741 16.28 24.1267 15.4656C23.8537 15.0595 23.6222 14.6268 23.4359 14.1743C23.2563 13.7277 23.1188 13.2652 23.0255 12.7929C22.9338 12.3111 22.8868 11.8219 22.8853 11.3314V1.38139C22.8826 1.20286 22.9167 1.02567 22.9854 0.860869C23.0546 0.692255 23.1567 0.53912 23.2858 0.410414C23.4155 0.289972 23.5644 0.191877 23.7262 0.120121C23.8874 0.0483119 24.0606 0.00755793 24.2368 0C24.418 0.00329725 24.5974 0.037139 24.7674 0.100101C24.9317 0.171741 25.0812 0.273608 25.2079 0.400404C25.3369 0.52911 25.439 0.682245 25.5082 0.850859C25.5769 1.01566 25.611 1.19285 25.6083 1.37138V11.3214C25.608 11.6306 25.6382 11.9391 25.6984 12.2424C25.758 12.5445 25.8486 12.8397 25.9687 13.1232C26.0856 13.4087 26.2333 13.6806 26.4092 13.9341C26.9325 14.7108 27.6696 15.3193 28.5316 15.6858C28.8151 15.8059 29.1104 15.8965 29.4125 15.9561C30.0173 16.0761 30.6398 16.0761 31.2445 15.9561C31.5467 15.8965 31.8419 15.8059 32.1255 15.6858C32.411 15.5689 32.6829 15.4212 32.9364 15.2454C33.4561 14.8994 33.9018 14.4537 34.2479 13.9341C34.42 13.6783 34.5675 13.4068 34.6884 13.1232C34.8085 12.8397 34.899 12.5445 34.9586 12.2424C35.0189 11.9391 35.049 11.6306 35.0487 11.3214L35.0387 1.38139ZM52.6282 8.63872L47.7528 2.27229C47.7037 2.21297 47.6602 2.14931 47.6226 2.0821C47.582 2.01414 47.5453 1.94396 47.5125 1.87189C47.4831 1.79446 47.4629 1.71382 47.4524 1.63165C47.442 1.54856 47.442 1.46448 47.4524 1.38139C47.4532 1.20218 47.4907 1.02503 47.5626 0.860869C47.6317 0.694626 47.73 0.542077 47.8529 0.410414C47.9846 0.287593 48.1371 0.189284 48.3034 0.120121C48.4579 0.0496164 48.6243 0.00886459 48.7939 0L55.8017 0C56.1714 0.00143892 56.5402 0.0383112 56.9029 0.110111C57.2666 0.180315 57.6222 0.287651 57.964 0.430435C58.3141 0.574625 58.6493 0.752296 58.9651 0.96097C59.2762 1.16706 59.5648 1.40528 59.8261 1.67169C60.0897 1.93556 60.3277 2.2238 60.5369 2.53256C60.7408 2.84953 60.915 3.18462 61.0575 3.53357C61.2066 3.87736 61.3174 4.23656 61.3878 4.60465C61.4596 4.96733 61.4965 5.33605 61.4979 5.70576C61.4958 6.07875 61.459 6.45073 61.3878 6.81688C61.3199 7.17793 61.2125 7.53041 61.0675 7.86794C60.9273 8.21791 60.7529 8.5532 60.5469 8.86895C60.3352 9.17897 60.0974 9.47032 59.8361 9.73983C59.6009 9.97136 59.3464 10.1823 59.0753 10.3705C58.8035 10.5622 58.5154 10.7297 58.2143 10.871L57.894 11.0111L62.0686 16.4266C62.1781 16.5703 62.2596 16.7333 62.3088 16.9071C62.3391 17.0826 62.3391 17.2621 62.3088 17.4376C62.2872 17.6175 62.2293 17.7912 62.1386 17.9481C61.9496 18.2604 61.6491 18.4894 61.2977 18.5888C61.1222 18.619 60.9427 18.619 60.7671 18.5888C60.4053 18.5393 60.0777 18.3485 59.8561 18.0582L54.7305 11.3615H50.1754V17.3675C50.1747 17.5467 50.1372 17.7239 50.0653 17.8881C49.9256 18.2252 49.6598 18.4946 49.3245 18.6388C49.1545 18.7018 48.9752 18.7356 48.7939 18.7389C48.6082 18.7469 48.4229 18.7154 48.2503 18.6463C48.0777 18.5773 47.9218 18.4724 47.7928 18.3385C47.6638 18.2098 47.5617 18.0567 47.4925 17.8881C47.4206 17.7239 47.3831 17.5467 47.3824 17.3675V10.0101C47.3792 9.6368 47.523 9.27724 47.7828 9.0091C47.9115 8.88006 48.0647 8.77797 48.2333 8.70879C48.3978 8.63796 48.5748 8.60053 48.7539 8.59868L52.6282 8.63872ZM72.5802 18.7189C72.2068 18.7221 71.8472 18.5782 71.5791 18.3185C71.45 18.1898 71.3479 18.0367 71.2787 17.868C71.21 17.7032 71.1759 17.5261 71.1786 17.3475C71.177 17.1658 71.211 16.9856 71.2787 16.817C71.4232 16.4853 71.6879 16.2207 72.0196 16.0762C72.1882 16.0085 72.3684 15.9745 72.5501 15.9761H83.9727C84.1544 15.9745 84.3347 16.0085 84.5033 16.0762C84.6677 16.1479 84.8171 16.2497 84.9438 16.3765C85.0757 16.507 85.1793 16.6632 85.2482 16.8354C85.3171 17.0076 85.3498 17.1921 85.3443 17.3775C85.347 17.5561 85.3129 17.7333 85.2442 17.8981C85.175 18.0667 85.0729 18.2198 84.9438 18.3485C84.8184 18.4743 84.6684 18.5731 84.5033 18.6388C84.3353 18.7097 84.1551 18.7471 83.9727 18.7489L72.5802 18.7189ZM72.5802 10.8409C72.3978 10.8391 72.2176 10.8017 72.0496 10.7308C71.8877 10.6591 71.7389 10.561 71.6091 10.4405C71.48 10.3118 71.378 10.1587 71.3088 9.99009C71.2411 9.82496 71.2071 9.648 71.2087 9.46956C71.2071 9.28788 71.2411 9.10764 71.3088 8.93903C71.4604 8.60184 71.7366 8.33639 72.0796 8.19828C72.2476 8.12741 72.4279 8.09001 72.6102 8.08817H83.9727C84.1551 8.09001 84.3353 8.12741 84.5033 8.19828C84.6677 8.26992 84.8171 8.37178 84.9438 8.49858C85.0728 8.62347 85.175 8.77333 85.2442 8.93903C85.3118 9.10764 85.3459 9.28788 85.3443 9.46956C85.3458 9.648 85.3118 9.82496 85.2442 9.99009C85.175 10.1587 85.0729 10.3118 84.9438 10.4405C84.814 10.561 84.6652 10.6591 84.5033 10.7308C84.3353 10.8017 84.1551 10.8391 83.9727 10.8409H72.5802ZM72.5802 2.83286C72.4067 2.82114 72.2369 2.777 72.0796 2.70273C71.7438 2.57425 71.4686 2.3241 71.3088 2.00202C71.2411 1.83341 71.2071 1.65317 71.2087 1.47149C71.206 1.29295 71.24 1.11576 71.3088 0.95096C71.378 0.782346 71.48 0.629211 71.6091 0.500505C71.8773 0.240766 72.2369 0.0969409 72.6102 0.100101H83.9727C84.154 0.103398 84.3334 0.13724 84.5033 0.200202C84.6656 0.275481 84.8144 0.376936 84.9438 0.500505C85.0729 0.629211 85.175 0.782346 85.2442 0.95096C85.3129 1.11576 85.347 1.29295 85.3443 1.47149C85.347 1.65002 85.3129 1.82721 85.2442 1.99201C85.175 2.16063 85.0729 2.31376 84.9438 2.44247C84.8171 2.56926 84.6677 2.67113 84.5033 2.74277C84.3347 2.81046 84.1544 2.84446 83.9727 2.84287L72.5802 2.83286ZM104.776 11.4416L102.043 5.13518L96.4866 17.9381C96.4111 18.1028 96.3059 18.2521 96.1762 18.3786C96.0463 18.5036 95.8933 18.6022 95.7257 18.6688C95.5602 18.7341 95.383 18.7648 95.2051 18.7589C95.0259 18.7582 94.8487 18.7207 94.6846 18.6488C94.5202 18.5772 94.3708 18.4753 94.2441 18.3485C94.1213 18.2169 94.0229 18.0643 93.9538 17.8981C93.8869 17.7327 93.8529 17.5559 93.8537 17.3775C93.8589 17.1946 93.8997 17.0144 93.9738 16.847L100.781 1.12113C100.861 0.953919 100.974 0.804216 101.112 0.680687C101.238 0.551237 101.392 0.452003 101.562 0.390394C101.883 0.261226 102.242 0.261226 102.563 0.390394C102.645 0.420268 102.722 0.460648 102.794 0.510515L102.994 0.680687C103.055 0.74028 103.109 0.807566 103.154 0.880889C103.201 0.952058 103.244 1.02556 103.284 1.10111L106.287 7.95803L109.291 1.11112C109.361 0.943515 109.467 0.793216 109.601 0.670677C109.727 0.541227 109.881 0.441993 110.052 0.380384C110.373 0.251216 110.731 0.251216 111.053 0.380384C111.132 0.414394 111.209 0.454556 111.283 0.500505L111.483 0.670677C111.545 0.732728 111.602 0.799679 111.653 0.870879L111.773 1.0911L118.591 16.827C118.662 16.995 118.699 17.1752 118.701 17.3575C118.7 17.5349 118.67 17.7108 118.611 17.8781C118.539 18.043 118.441 18.1952 118.321 18.3285C118.194 18.4553 118.045 18.5572 117.88 18.6288C117.712 18.6997 117.532 18.7371 117.35 18.7389C117.172 18.7432 116.995 18.7126 116.829 18.6488C116.663 18.5797 116.51 18.4814 116.379 18.3585C116.252 18.2318 116.15 18.0824 116.078 17.9181L110.492 5.10515L107.759 11.4115L110.122 16.847C110.192 17.0115 110.23 17.1884 110.232 17.3675C110.232 17.5482 110.201 17.7276 110.142 17.8981C110.072 18.0667 109.97 18.2198 109.841 18.3485C109.718 18.4796 109.568 18.5821 109.401 18.6488C109.237 18.7207 109.059 18.7582 108.88 18.7589C108.702 18.7632 108.526 18.7326 108.36 18.6688C108.193 18.5997 108.041 18.5014 107.909 18.3786C107.782 18.2518 107.68 18.1024 107.609 17.9381L106.267 14.855L104.936 17.9381C104.861 18.1004 104.759 18.2492 104.636 18.3786C104.5 18.5015 104.344 18.5998 104.175 18.6688C104.01 18.7341 103.832 18.7648 103.654 18.7589C103.475 18.7582 103.298 18.7207 103.134 18.6488C102.967 18.5821 102.817 18.4796 102.693 18.3485C102.566 18.2203 102.467 18.0669 102.403 17.8981C102.335 17.7295 102.301 17.5492 102.303 17.3675C102.311 17.1891 102.348 17.0132 102.413 16.847L104.776 11.4416ZM127.381 1.43145C127.381 1.25224 127.419 1.07508 127.491 0.91092C127.56 0.742305 127.662 0.58917 127.791 0.460465C127.917 0.334647 128.066 0.235853 128.232 0.170172C128.4 0.0993044 128.58 0.0619017 128.762 0.0600606C128.94 0.0633233 129.116 0.0971843 129.283 0.160162C129.449 0.232907 129.602 0.334575 129.733 0.460465C129.856 0.592128 129.954 0.744676 130.024 0.91092C130.095 1.07508 130.133 1.25224 130.134 1.43145V17.4376C130.132 17.6199 130.094 17.8001 130.024 17.9681C129.952 18.13 129.854 18.2788 129.733 18.4086C129.605 18.5376 129.451 18.6397 129.283 18.7089C129.118 18.7797 128.941 18.8172 128.762 18.819C128.58 18.8172 128.4 18.7798 128.232 18.7089C127.9 18.5644 127.635 18.2998 127.491 17.9681C127.42 17.8001 127.382 17.6199 127.381 17.4376V1.43145ZM146.402 11.6918L141.286 18.2484C141.173 18.3909 141.034 18.5099 140.876 18.5988C140.723 18.6908 140.552 18.7488 140.375 18.7689C140.199 18.799 140.02 18.799 139.844 18.7689C139.67 18.7218 139.506 18.6401 139.364 18.5287C139.224 18.4137 139.105 18.2748 139.014 18.1183C138.843 17.8136 138.797 17.4553 138.883 17.1173C138.933 16.9466 139.014 16.787 139.124 16.6468L144.67 9.54964L139.154 2.31233C138.933 2.02788 138.833 1.66876 138.873 1.31132C138.897 1.13176 138.954 0.95839 139.044 0.800809C139.135 0.647292 139.254 0.511637 139.394 0.400404C139.678 0.180207 140.038 0.079652 140.395 0.120121C140.57 0.142829 140.74 0.197093 140.896 0.280283C141.057 0.369768 141.196 0.492637 141.306 0.640647L146.422 7.18726L151.537 0.630637C151.643 0.482869 151.78 0.359899 151.938 0.270273C152.097 0.187149 152.27 0.132924 152.448 0.110111C152.623 0.0750561 152.804 0.0750561 152.979 0.110111C153.152 0.161453 153.315 0.242769 153.459 0.350354C153.599 0.461586 153.718 0.597241 153.81 0.750758C153.893 0.910133 153.947 1.08298 153.97 1.26127C154.01 1.43583 154.01 1.61725 153.97 1.79181C153.927 1.96793 153.845 2.13213 153.73 2.27229L148.164 9.4095L153.7 16.5067C153.813 16.6444 153.895 16.8049 153.94 16.9771C153.98 17.1518 153.98 17.333 153.94 17.5077C153.917 17.686 153.863 17.8588 153.78 18.0182C153.691 18.1765 153.572 18.316 153.429 18.4286C153.285 18.5362 153.122 18.6175 152.949 18.6688C152.688 18.7411 152.412 18.734 152.155 18.6484C151.898 18.5628 151.673 18.4027 151.507 18.1884L146.402 11.6918ZM2.74308 11.3915V17.3976C2.74578 17.5761 2.71171 17.7533 2.64297 17.9181C2.57379 18.0867 2.47169 18.2398 2.34264 18.3685C2.07447 18.6283 1.71488 18.7721 1.34154 18.7689C1.16298 18.7716 0.985781 18.7376 0.820962 18.6688C0.652332 18.5997 0.499182 18.4976 0.370465 18.3685C0.244375 18.2394 0.145631 18.0862 0.0801445 17.9181C0.0224235 17.7612 -0.0047608 17.5947 5.61421e-05 17.4276V10.0101C0.00190398 9.83102 0.0393365 9.65408 0.110178 9.48958C0.167985 9.3089 0.267429 9.14431 0.400498 9.0091C0.529216 8.88006 0.682365 8.77797 0.850995 8.70879C1.01517 8.63691 1.19234 8.59943 1.37157 8.59868H8.3793C8.58944 8.61338 8.80044 8.61003 9.01 8.58867C9.19464 8.54716 9.37548 8.49024 9.5506 8.4185C9.71158 8.3418 9.86565 8.25138 10.0111 8.14823C10.1724 8.0389 10.3232 7.91492 10.4616 7.77785C10.5959 7.6369 10.7197 7.48635 10.832 7.3274C10.9378 7.166 11.0283 6.99509 11.1023 6.81688C11.1741 6.64178 11.231 6.46096 11.2725 6.27634C11.3045 6.08443 11.3212 5.8903 11.3226 5.69575C11.3208 5.50454 11.304 5.31377 11.2725 5.12517C11.231 4.93729 11.1741 4.75315 11.1023 4.57462C11.0261 4.40066 10.9357 4.23326 10.832 4.07411C10.7197 3.91516 10.5959 3.76461 10.4616 3.62366C10.3232 3.48659 10.1724 3.36261 10.0111 3.25328C9.85102 3.15067 9.67972 3.0667 9.50054 3.00303C9.34387 2.92323 9.17952 2.85951 9.01 2.81284C8.8191 2.77252 8.62448 2.75239 8.42936 2.75278H1.42163C1.24307 2.75548 1.06587 2.7214 0.901051 2.65268C0.73242 2.5835 0.579271 2.48141 0.450553 2.35238C0.19079 2.08423 0.046951 1.72467 0.0501114 1.35136C0.0388649 1.18554 0.0592489 1.01908 0.110178 0.860869C0.175664 0.69272 0.274408 0.539511 0.400498 0.410414C0.532174 0.287593 0.684737 0.189284 0.850995 0.120121C1.01444 0.0447888 1.19164 0.00390001 1.37157 0L8.3793 0C8.75269 0.00470774 9.12477 0.0449294 9.49053 0.120121C9.85392 0.191772 10.2094 0.299065 10.5517 0.440445C10.902 0.584118 11.2373 0.761815 11.5528 0.97098C12.1709 1.38798 12.7014 1.92187 13.1145 2.54257C13.3184 2.85954 13.4927 3.19463 13.6351 3.54358C13.7913 3.88259 13.9186 4.2342 14.0155 4.59464C14.0873 4.95732 14.1242 5.32604 14.1256 5.69575C14.1235 6.06874 14.0867 6.44072 14.0155 6.80687C13.9358 7.16932 13.8253 7.5243 13.6852 7.86794C13.5427 8.21689 13.3685 8.55198 13.1646 8.86895C12.9529 9.17897 12.7151 9.47032 12.4538 9.73983C12.1843 10.0011 11.8929 10.2389 11.5828 10.4506C11.2671 10.6565 10.9317 10.8309 10.5817 10.9711C10.2381 11.1112 9.88305 11.2217 9.52057 11.3014C9.15448 11.3732 8.7824 11.4101 8.40934 11.4115L2.74308 11.3915Z" fill="white"/>
</g>
</mask>
<g mask="url(#mask0_148_2232)">
<g id="Group">
<g id="Vector_2">
<path d="M154 0H0V18.819H154V0Z" fill="black"/>
<path d="M154 0H0V18.819H154V0Z" fill="url(#paint0_linear_148_2232)"/>
</g>
</g>
</g>
</g>
</g>
</g>
</g>
<defs>
<linearGradient id="paint0_linear_148_2232" x1="82.5002" y1="-3" x2="82.5002" y2="22" gradientUnits="userSpaceOnUse">
<stop stop-color="#D9B340"/>
<stop offset="0.5" stop-color="#FFF382"/>
<stop offset="1" stop-color="#D4A53C"/>
</linearGradient>
<clipPath id="clip0_148_2232">
<rect width="154" height="18.819" fill="white"/>
</clipPath>
</defs>
</svg>
