<svg width="29" height="31" viewBox="0 0 29 31" fill="none" xmlns="http://www.w3.org/2000/svg">
<g id="Group">
<path id="Vector" d="M4.58845 0.159887C3.75041 0.533268 2.07434 2.82334 1.24461 4.72344C0.381679 6.68992 0 8.55683 0 10.7639C0.00829738 14.3982 1.21971 17.7088 3.55957 20.4387L4.04912 21.0112L3.92466 21.5173C3.77531 22.1562 3.4849 23.7742 3.4849 23.9899C3.4849 24.0812 3.59276 24.2638 3.72552 24.3965C4.19017 24.8612 4.82078 24.6123 4.93694 23.9236C5.3684 21.3016 5.98241 19.3185 7.00299 17.2525C9.64985 11.9256 14.2964 7.90964 19.9137 6.09251C21.8138 5.4785 23.8052 5.13001 25.4729 5.10512C26.5018 5.09682 26.5101 5.09682 26.6014 5.30426C26.7756 5.66105 26.9831 7.83496 27.0246 9.75995C27.0992 12.8051 26.8586 15.1947 26.2944 16.8791C25.531 19.1609 24.4192 21.0112 22.7763 22.7205C20.5443 25.0354 17.8974 26.4875 14.6449 27.1844C13.6575 27.3919 13.4086 27.4085 11.7408 27.4085C10.3219 27.4168 9.73282 27.3836 9.09392 27.2591C7.82443 27.0268 7.84102 27.0766 8.77033 26.4211C12.6618 23.6995 16.1052 20.0487 18.5529 16.0411C18.8516 15.5598 19.1255 15.0703 19.1669 14.9624C19.3246 14.5475 18.918 14.0165 18.4368 14.0165C18.1713 14.0165 17.9555 14.2571 17.3581 15.2196C13.699 21.1522 8.14802 25.9398 1.83372 28.6282C1.21142 28.8937 0.622303 29.1924 0.522735 29.292C0.257219 29.5409 0.265516 29.9724 0.547627 30.2545C0.721872 30.4287 0.813143 30.4619 1.10355 30.4287C1.55161 30.3706 3.60106 29.4662 5.10289 28.6614L6.26452 28.0308L6.9698 28.2382C10.0564 29.126 13.2758 29.126 16.3458 28.2465C21.9134 26.6451 26.3193 22.1977 27.8709 16.5887C28.5596 14.1244 28.6674 9.00489 28.1198 5.43702C27.9788 4.5409 27.7132 4.11773 27.0909 3.78584C26.2612 3.34608 22.461 3.78584 19.6731 4.64047C17.1341 5.42042 14.1885 6.95544 12.2635 8.50705C11.9565 8.75597 11.691 8.9551 11.6661 8.9551C11.6329 8.9551 11.6163 8.84724 11.6163 8.71448C11.6163 8.3245 11.3757 7.17947 11.1517 6.49078C10.3136 3.902 8.28908 1.3796 6.17325 0.276051C5.54265 -0.0558453 5.11948 -0.0807381 4.58845 0.159887ZM6.48025 2.21764C8.77862 4.05136 10.0896 6.59865 10.2307 9.53592L10.2639 10.2329L9.59177 10.9465C8.82841 11.7513 7.99867 12.7636 7.55891 13.4274L7.2602 13.8754L7.16063 12.4732C7.06107 10.9299 6.89512 9.71017 6.58812 8.12537C6.28941 6.59865 6.21473 6.46589 5.61732 6.46589C5.34351 6.46589 5.0614 6.68162 4.96183 6.96373C4.93694 7.03841 5.01991 7.63582 5.15267 8.29132C5.60073 10.5648 5.75008 12.0334 5.75838 14.3069V16.3813L5.33521 17.3355C5.10289 17.8582 4.82907 18.5303 4.72121 18.8207L4.53037 19.3517L4.28974 19.0696C3.50979 18.1403 2.60538 16.4974 2.12413 15.1035C1.5682 13.5187 1.46034 12.7885 1.45204 10.7805C1.45204 8.83064 1.51842 8.36599 2.00796 6.7563C2.50581 5.11342 3.68403 3.01418 4.7544 1.87744L5.20245 1.3879L5.54265 1.56214C5.72519 1.65341 6.14836 1.95212 6.48025 2.21764Z" fill="#FF8585"/>
</g>
</svg>
