<svg width="31" height="29" viewBox="0 0 31 29" fill="none" xmlns="http://www.w3.org/2000/svg">
<g id="Group">
<path id="Vector" d="M21.1222 1.03732C20.765 1.21289 20.6318 1.67904 20.8316 2.02412C21.0254 2.35103 21.0677 2.36314 22.781 2.39341L24.3732 2.42368L23.7012 3.21069C18.8883 8.84087 12.5801 13.0726 5.53934 15.3791C4.46779 15.7303 4.29828 15.8574 4.29828 16.3175C4.29828 16.5718 4.32855 16.6444 4.4799 16.8018C4.7947 17.1166 4.96421 17.1045 6.21133 16.6807C13.361 14.2773 19.8267 9.94269 24.6396 4.34278L25.1239 3.77976L25.1542 5.06926C25.1905 6.49194 25.2026 6.55247 25.5719 6.72804C25.814 6.84307 26.1409 6.80674 26.3165 6.64934C26.601 6.38902 26.6071 6.35269 26.6071 3.85846C26.6071 1.50953 26.6071 1.50348 26.4679 1.29764C26.2257 0.940458 26.2499 0.940458 23.6709 0.940458C21.6913 0.940458 21.2796 0.95862 21.1222 1.03732Z" fill="#FF8585"/>
<path id="Vector_2" d="M21.092 10.9471C20.977 11.0258 20.8559 11.1772 20.8135 11.2922C20.759 11.4496 20.7408 13.4777 20.7408 19.5377L20.7348 27.5773H19.5543H18.3738V21.1843V14.7914L18.1679 14.5855L17.9621 14.3797H15.4679H12.9736L12.7678 14.5855L12.562 14.7914V21.1843V27.5773H11.3814H10.2009L10.1949 23.0792C10.1949 19.7677 10.1767 18.5327 10.1222 18.3753C10.0798 18.2603 9.95875 18.1089 9.84373 18.0302C9.6379 17.891 9.6379 17.891 7.2708 17.891C4.68576 17.891 4.70998 17.891 4.46782 18.2482L4.32858 18.454V23.0126V27.5713L2.36104 27.5894L0.393507 27.6076L0.19978 27.8074C0.0302698 27.9769 0 28.0435 0 28.3038C0 28.5641 0.0302698 28.6307 0.19978 28.8002L0.393507 29H15.4679H30.5422L30.7359 28.8002C30.9054 28.6307 30.9357 28.5641 30.9357 28.3038C30.9357 28.0435 30.9054 27.9769 30.7359 27.8074L30.5422 27.6076L28.5747 27.5894L26.6071 27.5713V19.4711V11.3709L26.4679 11.1651C26.2257 10.8079 26.2499 10.8079 23.6649 10.8079C21.2978 10.8079 21.2978 10.8079 21.092 10.9471ZM25.1542 19.9191V27.5773H23.671H22.1877V19.9191V12.2608H23.671H25.1542V19.9191ZM16.9208 21.705V27.5773H15.4679H14.0149V21.705V15.8326H15.4679H16.9208V21.705ZM8.74796 23.4606V27.5773H7.26475H5.78153V23.4606V19.3439H7.26475H8.74796V23.4606Z" fill="#FF8585"/>
</g>
</svg>
