<svg width="23" height="19" viewBox="0 0 23 19" fill="none" xmlns="http://www.w3.org/2000/svg">
<g id="Group">
<path id="Vector" d="M8.64046 0.0657902C8.55177 0.112249 7.71972 1.12168 6.0303 3.22924L3.55107 6.32933H2.3727C1.27035 6.32933 1.18166 6.33355 1.02538 6.4138C0.915572 6.4687 0.826877 6.5574 0.771971 6.66721C0.691724 6.82348 0.6875 6.91218 0.6875 8.22993C0.6875 9.54768 0.691724 9.63637 0.771971 9.79264C0.907125 10.0587 1.09719 10.1305 1.65047 10.1305H2.11084L3.30611 14.3203C3.96498 16.6264 4.53939 18.5861 4.58162 18.6706C4.6323 18.7719 4.721 18.8606 4.82659 18.9155C4.99131 19 5.06311 19 11.4998 19C17.9365 19 18.0083 19 18.173 18.9155C18.2786 18.8606 18.3673 18.7719 18.418 18.6706C18.4602 18.5861 19.0346 16.6264 19.6935 14.3203L20.8888 10.1305H21.3491C21.9024 10.1305 22.0925 10.0587 22.2276 9.79264C22.3079 9.63637 22.3121 9.54768 22.3121 8.22993C22.3121 6.91218 22.3079 6.82348 22.2276 6.66721C22.1727 6.5574 22.084 6.4687 21.9742 6.4138C21.818 6.33355 21.7293 6.32933 20.6269 6.32933H19.4485L16.9693 3.22924C15.111 0.906279 14.4563 0.116474 14.3465 0.0615673C13.8185 -0.187622 13.2441 0.378334 13.5102 0.889385C13.5482 0.961185 14.5239 2.20291 15.6854 3.65159C16.8426 5.10027 17.7929 6.29554 17.7929 6.30821C17.7929 6.32088 14.9631 6.32933 11.4998 6.32933C8.03649 6.32933 5.20671 6.32088 5.20671 6.30821C5.20671 6.29554 6.15701 5.10027 7.31426 3.65159C8.47574 2.20291 9.45138 0.961185 9.4894 0.889385C9.75548 0.374111 9.16418 -0.19607 8.64046 0.0657902ZM21.045 8.22993V8.86346H11.4998H1.95457V8.22993V7.59639H11.4998H21.045V8.22993ZM19.5499 10.2023C19.5372 10.2446 19.0515 11.9551 18.4645 14.0035L17.4001 17.7329H11.4998H5.5995L4.53516 14.0035C3.94809 11.9551 3.46238 10.2446 3.44971 10.2023C3.42859 10.1348 3.82983 10.1305 11.4998 10.1305C19.1698 10.1305 19.571 10.1348 19.5499 10.2023Z" fill="black"/>
<path id="Vector_2" d="M7.10742 11.4698C6.90046 11.5754 6.76953 11.7908 6.76953 12.0189C6.76953 12.3399 7.39884 16.0102 7.47909 16.1453C7.79586 16.6859 8.6279 16.4705 8.6279 15.8454C8.6279 15.5245 7.99859 11.8542 7.91834 11.719C7.75362 11.4361 7.39039 11.322 7.10742 11.4698Z" fill="black"/>
<path id="Vector_3" d="M11.1956 11.4866C11.0985 11.5373 11.0014 11.6344 10.9507 11.7358C10.8704 11.8963 10.8662 11.9808 10.8662 13.9321C10.8662 15.8833 10.8704 15.9678 10.9507 16.1283C11.0478 16.3184 11.2886 16.4662 11.4997 16.4662C11.7109 16.4662 11.9517 16.3184 12.0488 16.1283C12.1291 15.9678 12.1333 15.8833 12.1333 13.9321C12.1333 11.9808 12.1291 11.8963 12.0488 11.7358C11.8925 11.4275 11.5124 11.3177 11.1956 11.4866Z" fill="black"/>
<path id="Vector_4" d="M15.4277 11.4445C15.2926 11.4994 15.1785 11.605 15.1067 11.7444C15.0391 11.8753 14.4141 15.5751 14.4141 15.8454C14.4141 16.4705 15.2461 16.6859 15.5629 16.1453C15.6431 16.0102 16.2724 12.3399 16.2724 12.0189C16.2724 11.5881 15.8247 11.2882 15.4277 11.4445Z" fill="black"/>
</g>
</svg>
