<svg width="24" height="28" viewBox="0 0 24 28" fill="none" xmlns="http://www.w3.org/2000/svg">
<g id="Group">
<path id="Vector" d="M11.4082 0.355366C10.0457 0.733837 0.519046 3.63185 0.400098 3.70214C0.302777 3.76161 0.178422 3.87515 0.113541 3.95625L0 4.10764V10.5254C0 15.4996 0.0162202 17.0243 0.0702875 17.3055C0.583927 20.0251 2.74662 22.6581 6.60703 25.2588C8.45073 26.4969 11.2136 28 11.6515 28C12.0895 28 14.8523 26.4969 16.696 25.2588C20.5564 22.6581 22.7191 20.0251 23.2327 17.3055C23.2868 17.0243 23.303 15.4996 23.303 10.5254V4.10764L23.1895 3.95625C23.1246 3.87515 23.0002 3.76161 22.9029 3.70214C22.6921 3.57778 12.03 0.376993 11.7326 0.344553C11.6137 0.33374 11.4677 0.339146 11.4082 0.355366ZM16.696 3.49127L21.708 4.99434V10.7363C21.708 14.4724 21.6864 16.6242 21.6486 16.9C21.5296 17.8029 21.0322 18.9059 20.3293 19.8466C19.8806 20.4414 18.8046 21.5606 18.0963 22.1661C16.7447 23.3286 14.9767 24.5127 12.9762 25.6048C11.9759 26.1509 11.7002 26.2807 11.5758 26.2482C11.2406 26.1617 8.79135 24.756 7.6235 23.9828C5.7041 22.7068 3.95773 21.1551 2.9737 19.8466C2.27083 18.9059 1.77341 17.8029 1.65446 16.9C1.61661 16.6242 1.59499 14.4724 1.59499 10.7363V4.99434L6.55837 3.50209C9.28336 2.68026 11.5542 2.00442 11.5974 1.99901C11.6407 1.99361 13.9332 2.66404 16.696 3.49127Z" fill="#FF8585"/>
</g>
</svg>
