<svg class = "svg-icon" width="20" height="19" viewBox="0 0 20 19" fill="none" xmlns="http://www.w3.org/2000/svg">
<g id="Group">
<path id="Vector" d="M6.60567 0.0404288C4.95669 0.248408 3.39684 1.01719 2.2121 2.20193C-0.0311064 4.44143 -0.632762 7.83966 0.70425 10.6734C1.80729 13.0169 4.01335 14.6361 6.54254 14.9704C8.42178 15.2155 10.3419 14.7327 11.8794 13.6297C12.0614 13.4997 12.2248 13.392 12.2397 13.392C12.2545 13.392 13.4987 14.6213 14.9991 16.118C17.8774 18.9963 17.8811 18.9963 18.2117 19C18.3751 19 18.6982 18.8663 18.7948 18.7549C18.9025 18.6323 19.0102 18.3575 19.0102 18.2015C19.0102 17.871 19.0065 17.8673 16.1282 14.989C14.6315 13.4885 13.4021 12.2481 13.4021 12.2332C13.4021 12.2184 13.5099 12.055 13.6436 11.8656C14.5646 10.562 15.0326 9.10983 15.0363 7.53512C15.0363 5.49989 14.2564 3.61694 12.8191 2.18708C11.6826 1.05804 10.2862 0.34497 8.68547 0.077568C8.18038 -0.00785216 7.13305 -0.0264218 6.60567 0.0404288ZM8.38835 1.63742C10.0819 1.91225 11.5266 2.82587 12.444 4.20745C13.1273 5.23621 13.443 6.26496 13.4467 7.48684C13.4467 8.07736 13.4059 8.43389 13.2722 8.97241C12.7485 11.0633 11.0735 12.7383 8.98258 13.262C8.44406 13.3957 8.08753 13.4365 7.49701 13.4365C6.27513 13.4328 5.24638 13.1171 4.21762 12.4338C2.57978 11.3456 1.59188 9.49979 1.59188 7.51284C1.59188 6.51751 1.79614 5.67816 2.26038 4.77939C3.0106 3.32725 4.34761 2.2465 5.95574 1.78226C6.63538 1.58913 7.68642 1.526 8.38835 1.63742Z" fill="#FAFAFA"/>
</g>
</svg>
